<svg xmlns="http://www.w3.org/2000/svg" xmlns:xlink="http://www.w3.org/1999/xlink" preserveAspectRatio="xMidYMid" width="1000" height="1000" viewBox="0 0 1000 1000">
  <defs>
    <style>
      .cls-1 {
        fill: #002777;
        fill-rule: evenodd;
      }
    </style>
  </defs>
  <path d="M473.000,97.333 C474.959,97.836 475.419,99.208 477.000,99.667 C480.222,99.333 483.445,99.000 486.667,98.667 C486.556,98.889 486.444,99.111 486.333,99.333 C478.961,101.328 469.306,104.767 462.667,108.333 C457.152,111.295 451.238,110.669 445.333,113.000 C430.961,118.674 414.516,123.552 400.333,129.000 C385.658,134.638 372.101,139.022 359.667,146.333 C357.946,147.345 355.987,146.846 354.333,148.000 C347.057,153.079 339.577,158.601 332.333,163.667 C327.982,166.709 322.664,167.569 318.333,170.667 C313.599,174.053 307.788,179.866 303.333,181.333 C298.254,183.007 265.326,171.174 257.667,169.667 C258.778,168.556 259.889,167.444 261.000,166.333 C262.350,164.920 264.142,166.269 266.000,165.000 C275.370,158.601 284.517,153.255 295.333,147.667 C305.477,142.426 317.082,136.380 327.000,130.333 C327.889,130.333 328.778,130.333 329.667,130.333 C335.582,127.882 342.786,124.468 348.667,121.667 C364.120,114.306 383.800,113.555 400.333,107.333 C406.371,105.061 408.356,108.964 412.000,109.667 C412.239,109.713 421.436,108.931 422.333,108.667 C425.945,107.603 427.645,103.186 430.667,101.667 C434.376,99.802 440.085,100.160 443.667,98.667 C447.764,96.959 451.410,100.161 453.000,100.667 C459.666,99.556 466.334,98.444 473.000,97.333 ZM525.333,194.667 C534.317,194.204 545.354,199.296 558.333,200.667 C558.333,200.111 558.333,199.555 558.333,199.000 C555.921,172.878 555.705,159.857 554.667,141.000 C554.227,133.011 553.734,121.887 555.000,117.000 C570.135,114.535 606.497,121.189 623.333,126.667 C631.415,129.296 641.244,130.763 648.333,133.333 C695.370,150.384 750.751,181.416 779.333,211.333 C779.328,211.300 789.430,219.100 792.333,222.000 C803.455,233.111 813.632,242.926 826.333,254.000 C852.597,276.900 884.492,293.840 913.333,315.000 C922.444,321.888 931.556,328.778 940.667,335.667 C939.318,340.761 937.525,346.922 935.000,356.333 C928.382,373.193 922.093,390.871 915.667,407.667 C911.409,418.793 904.419,430.409 902.333,442.667 C903.444,447.333 904.556,452.000 905.667,456.667 C905.813,461.753 913.993,493.861 916.667,501.000 C914.272,506.913 908.311,510.861 906.000,517.333 C904.709,546.359 893.622,597.264 872.667,645.333 C866.001,655.888 859.333,666.445 852.667,677.000 C848.964,682.330 844.254,687.255 842.000,694.000 C842.111,694.000 842.222,694.000 842.333,694.000 C842.333,693.778 842.333,693.555 842.333,693.333 C855.683,680.069 868.979,657.087 879.000,640.333 C883.794,632.318 887.351,620.652 894.000,614.333 C894.111,614.333 894.222,614.333 894.333,614.333 C894.333,614.444 894.333,614.556 894.333,614.667 C885.238,638.113 873.678,661.223 859.667,680.000 C853.276,688.565 845.052,695.780 838.000,703.667 C824.655,718.591 811.383,733.477 795.667,746.000 C785.620,754.006 775.817,762.285 765.333,770.000 C760.169,773.800 755.882,776.988 747.000,784.000 C733.601,792.452 728.487,794.348 712.333,803.333 C686.925,817.444 666.489,825.883 641.667,834.000 C617.181,843.630 586.939,849.467 559.000,855.000 C540.860,858.592 519.716,859.115 499.333,859.667 C491.576,859.877 477.648,857.121 473.667,854.667 C482.835,853.693 499.434,853.515 511.667,850.667 C515.777,850.222 519.889,849.778 524.000,849.333 C509.001,849.667 493.998,850.000 479.000,850.333 C472.667,850.333 466.333,850.333 460.000,850.333 C426.176,844.523 390.594,838.129 364.000,824.000 C355.768,819.626 322.940,807.025 320.667,800.333 C314.240,795.276 316.729,796.352 311.263,790.259 C316.712,793.182 318.612,793.985 324.667,797.000 C336.221,802.666 343.112,805.667 354.667,811.333 C375.113,819.772 389.004,822.603 410.000,829.667 C418.110,830.444 435.556,833.556 443.667,834.333 C469.117,836.732 480.412,838.375 507.666,836.239 C514.888,835.778 531.112,832.555 538.000,832.000 C555.388,828.887 573.710,827.101 589.667,823.000 C595.494,821.502 601.248,822.379 607.333,821.333 C616.443,819.768 631.570,815.316 639.333,811.333 C639.167,811.056 638.667,811.000 638.000,810.000 C628.095,813.483 616.403,818.028 604.667,817.333 C604.667,817.222 604.667,817.111 604.667,817.000 C612.848,815.058 624.440,811.788 630.000,806.667 C629.046,806.017 626.008,806.162 625.000,804.667 C617.778,807.333 612.888,809.000 605.667,811.667 C594.668,813.778 585.666,816.889 574.667,819.000 C568.202,820.846 559.246,822.379 552.000,824.000 C506.199,834.245 447.613,832.091 406.667,819.000 C396.138,815.634 365.798,806.087 360.667,799.333 C360.889,799.333 361.111,799.333 361.333,799.333 C366.574,797.915 389.180,807.275 395.000,809.333 C412.311,815.456 430.981,817.331 452.333,819.000 C460.132,819.609 466.008,820.220 478.000,820.000 C485.237,819.867 493.327,820.264 505.667,819.333 C537.311,814.844 544.634,813.015 567.000,806.000 C573.647,803.915 581.245,801.936 587.000,798.667 C584.445,798.333 583.222,797.333 580.667,797.000 C568.833,800.493 563.898,802.021 554.000,804.000 C554.464,803.359 554.034,803.800 554.667,803.333 C555.922,800.355 570.868,798.571 575.667,794.667 C575.667,794.556 575.667,794.444 575.667,794.333 C568.424,791.445 553.869,782.344 548.333,777.333 C544.890,774.216 540.246,769.922 538.000,768.333 C524.497,767.081 511.645,766.112 499.667,765.667 C483.224,764.611 470.776,762.889 455.333,761.333 C455.444,761.111 455.556,760.889 455.667,760.667 C480.694,760.583 505.714,762.929 532.000,763.000 C531.778,762.667 529.889,761.000 529.667,760.667 C514.350,759.881 502.715,759.452 488.667,758.667 C475.389,757.924 466.216,758.135 455.000,756.667 C439.113,754.587 422.621,752.027 408.000,748.333 C393.535,744.678 383.429,747.014 375.667,736.000 C377.362,729.806 401.802,723.568 408.667,720.667 C427.299,712.791 440.621,705.198 455.333,694.000 C459.177,691.074 463.781,689.135 466.333,685.000 C467.333,680.556 468.333,676.111 469.333,671.667 C475.542,669.148 482.022,668.727 488.333,666.667 C491.666,662.445 495.000,658.222 498.333,654.000 C504.437,645.819 509.807,637.117 515.333,628.333 C519.000,622.889 522.667,617.444 526.333,612.000 C516.575,598.319 493.949,596.510 490.000,616.000 C493.348,616.641 496.487,618.030 499.333,616.333 C500.011,614.289 500.466,613.128 499.667,611.000 C504.876,609.768 505.783,611.433 509.333,614.000 C509.953,613.238 510.228,613.961 510.000,612.000 C510.222,612.111 510.444,612.222 510.667,612.333 C510.778,612.111 510.889,611.889 511.000,611.667 C515.827,614.399 517.485,623.290 514.000,628.333 C506.222,639.591 485.905,642.104 476.667,630.667 C466.691,618.317 463.611,606.198 472.333,591.333 C473.333,589.333 474.333,587.333 475.333,585.333 C482.063,578.521 491.683,577.891 501.667,574.000 C501.556,573.778 501.444,573.556 501.333,573.333 C492.632,571.511 487.782,574.794 481.667,576.333 C481.778,576.111 481.889,575.889 482.000,575.667 C485.333,573.556 488.667,571.444 492.000,569.333 C510.358,564.805 535.913,582.781 540.333,592.333 C540.667,592.111 541.000,591.889 541.333,591.667 C542.037,587.928 553.786,574.829 556.667,570.333 C559.561,570.710 560.788,572.018 563.333,573.000 C564.413,576.978 569.634,608.662 570.667,609.667 C573.111,610.889 575.556,612.111 578.000,613.333 C582.444,616.234 586.489,620.822 589.333,625.333 C600.167,642.516 590.751,669.265 582.667,681.333 C583.222,681.333 583.778,681.333 584.333,681.333 C591.917,676.973 594.205,664.070 599.000,655.667 C603.240,648.235 618.071,628.113 627.000,619.667 C625.333,622.555 623.666,625.445 622.000,628.333 C615.818,642.306 607.663,655.796 603.667,671.000 C603.889,670.778 604.111,670.556 604.333,670.333 C603.534,675.343 601.372,681.038 603.000,686.333 C606.844,686.281 609.079,684.954 612.000,684.000 C611.000,665.784 618.727,644.367 627.000,634.000 C634.067,625.144 642.288,618.663 647.667,607.667 C649.864,603.173 654.794,592.914 652.667,585.667 C650.648,578.791 643.074,569.302 635.000,567.000 C636.036,571.333 638.432,574.895 639.333,580.000 C642.532,598.116 625.127,620.901 609.333,618.000 C609.333,617.889 609.333,617.778 609.333,617.667 C611.889,616.445 614.445,615.222 617.000,614.000 C617.000,613.556 617.000,613.111 617.000,612.667 C616.778,612.778 616.556,612.889 616.333,613.000 C613.111,613.889 609.889,614.778 606.667,615.667 C609.222,614.222 611.778,612.778 614.333,611.333 C623.272,604.352 631.326,589.764 622.333,577.000 C615.825,567.761 590.734,561.334 595.333,583.333 C596.000,583.556 596.667,583.778 597.333,584.000 C597.667,583.222 598.000,582.444 598.333,581.667 C599.998,581.217 601.447,580.961 603.333,581.333 C625.145,598.735 588.532,614.235 578.333,600.000 C578.333,599.889 578.333,599.778 578.333,599.667 C581.137,600.266 585.217,602.675 588.667,601.333 C588.444,601.222 588.222,601.111 588.000,601.000 C584.692,596.112 579.682,594.844 578.000,587.667 C575.532,577.135 578.239,567.151 582.667,561.667 C586.328,555.157 582.845,550.324 581.000,547.000 C575.818,537.664 571.211,532.834 561.333,530.667 C552.757,528.785 536.837,534.812 540.667,542.667 C541.439,544.452 542.545,545.204 545.000,545.333 C550.669,542.980 551.665,543.552 556.000,545.333 C558.546,546.379 560.212,544.908 562.333,545.667 C562.222,546.000 562.111,546.333 562.000,546.667 C561.111,547.778 560.222,548.889 559.333,550.000 C561.812,550.374 560.053,550.843 562.667,550.667 C563.336,549.328 563.035,550.274 564.000,549.667 C564.111,549.778 564.222,549.889 564.333,550.000 C562.800,571.010 529.825,573.478 524.000,553.333 C516.309,526.739 542.952,507.439 566.667,515.333 C571.403,512.273 573.316,506.471 579.000,504.000 C581.731,502.813 584.500,503.496 588.000,502.667 C610.002,497.456 623.591,507.383 636.667,520.000 C654.800,514.603 671.628,536.145 677.000,544.000 C678.842,546.693 679.797,551.747 682.667,553.333 C679.327,538.938 671.937,522.470 662.000,513.333 C654.953,506.853 647.492,499.698 640.678,493.442 C632.938,486.337 626.802,480.570 621.333,476.667 C631.703,490.666 643.844,497.812 648.333,506.667 C645.222,503.778 642.111,500.889 639.000,498.000 C628.899,489.213 620.087,479.388 610.333,470.333 C606.778,467.778 603.222,465.222 599.667,462.667 C586.179,450.273 572.620,437.899 559.333,425.333 C553.819,420.118 548.449,417.412 543.667,412.667 C541.154,410.174 542.533,404.329 541.333,400.667 C533.132,399.742 524.708,394.575 517.667,391.667 C500.838,384.717 484.663,378.208 468.333,371.333 C461.166,368.316 447.113,364.028 442.333,359.000 C437.606,354.027 440.442,341.529 443.333,336.333 C443.444,336.333 443.556,336.333 443.667,336.333 C467.109,345.443 490.558,354.556 514.000,363.667 C522.298,367.101 530.551,371.298 540.000,373.667 C534.444,370.771 532.339,369.860 528.667,368.333 C526.124,367.099 523.958,366.519 525.333,367.000 C518.895,364.520 509.296,360.143 508.000,359.000 C526.998,366.333 546.002,373.667 565.000,381.000 C567.666,380.889 570.334,380.778 573.000,380.667 C581.444,381.444 589.890,382.222 598.333,383.000 C598.512,382.074 598.070,382.177 599.000,382.333 C596.875,378.017 592.776,375.307 590.000,371.667 C580.394,359.070 571.036,346.333 560.667,334.333 C557.616,330.803 553.318,325.778 550.000,320.667 C529.514,289.106 525.723,246.032 525.333,194.667 ZM451.000,121.667 C452.111,121.778 453.222,121.889 454.333,122.000 C454.111,122.000 453.889,122.000 453.667,122.000 C447.879,127.993 425.870,134.146 417.000,138.333 C385.273,153.311 352.407,168.805 327.333,189.333 C326.253,188.939 312.697,183.971 312.000,183.333 C312.111,183.111 312.222,182.889 312.333,182.667 C316.111,180.111 319.889,177.555 323.667,175.000 C333.555,169.223 343.445,163.444 353.333,157.667 C358.185,155.098 363.403,154.528 368.667,152.000 C381.361,145.903 395.773,139.980 409.333,134.667 C419.555,131.334 429.779,128.000 440.000,124.667 C443.453,123.682 449.194,124.246 451.000,121.667 ZM557.333,121.667 C557.333,121.889 557.333,122.111 557.333,122.333 C557.333,122.111 557.333,121.889 557.333,121.667 ZM771.333,359.667 C776.773,360.159 793.543,369.478 806.430,374.243 C809.524,374.141 810.494,373.633 813.667,372.333 C806.012,354.981 788.876,329.583 783.333,319.667 C779.868,320.410 774.734,342.050 771.667,346.000 C763.018,357.135 746.618,356.917 730.000,360.333 C725.889,360.444 721.777,360.556 717.667,360.667 C687.195,365.329 665.039,353.507 644.667,344.667 C634.502,340.256 625.517,335.669 616.667,330.333 C614.032,328.745 611.626,327.876 609.667,325.667 C609.222,325.444 608.778,325.222 608.333,325.000 C609.778,325.444 611.222,325.889 612.667,326.333 C610.889,325.111 609.111,323.889 607.333,322.667 C615.555,325.444 623.779,328.222 632.000,331.000 C642.443,334.111 652.890,337.223 663.333,340.333 C670.244,341.932 675.959,340.355 683.667,341.667 C709.794,346.114 748.782,341.310 757.000,323.000 C757.555,320.111 759.111,315.889 759.667,313.000 C762.675,302.501 765.225,298.185 760.333,290.667 C758.074,287.195 749.820,274.150 745.000,267.667 C751.467,272.780 758.101,279.519 765.667,290.000 C765.778,290.000 765.889,290.000 766.000,290.000 C766.054,286.608 765.993,284.542 766.333,282.667 C760.011,272.304 735.937,244.096 729.333,234.667 C729.444,234.556 729.556,234.444 729.667,234.333 C736.674,239.640 746.065,248.956 753.000,256.000 C757.333,261.111 761.667,266.223 766.000,271.333 C766.111,271.333 766.222,271.333 766.333,271.333 C766.333,270.445 766.333,269.555 766.333,268.667 C764.427,263.507 760.336,260.364 757.333,256.333 C745.300,240.181 734.085,225.296 719.667,211.667 C714.221,206.519 708.829,198.080 701.667,195.000 C695.765,223.188 659.837,211.014 648.000,197.000 C643.630,191.826 641.098,177.894 644.000,171.000 C645.835,166.642 649.189,162.780 650.333,157.667 C644.556,154.778 638.777,151.889 633.000,149.000 C622.112,144.556 611.221,140.111 600.333,135.667 C595.609,133.699 581.485,128.984 580.000,132.667 C578.987,132.960 579.912,133.145 580.333,133.667 C581.913,136.884 585.794,138.661 588.333,141.000 C593.473,145.735 598.195,151.596 603.000,156.667 C616.665,173.776 630.335,190.891 644.000,208.000 C649.157,215.005 663.163,225.582 661.667,236.667 C633.214,234.729 601.015,230.681 570.667,223.000 C560.762,220.493 552.456,217.304 544.000,215.000 C542.514,214.595 542.803,214.528 542.333,215.000 C541.334,217.874 544.022,232.542 544.667,236.000 C550.516,267.382 552.335,277.880 556.667,293.667 C560.175,302.081 564.389,305.376 569.333,311.667 C583.901,330.202 594.240,340.913 609.333,358.667 C617.537,368.316 627.746,376.060 636.667,385.000 C643.952,392.301 649.245,402.234 655.000,411.000 C665.842,427.515 678.684,445.968 678.667,471.667 C682.970,468.214 686.055,462.128 689.000,457.333 C697.860,442.908 709.098,429.161 715.667,411.000 C716.667,406.778 717.667,402.555 718.667,398.333 C719.889,397.667 721.111,397.000 722.333,396.333 C723.143,399.695 724.787,405.407 727.000,407.667 C727.446,406.325 727.271,406.915 728.000,406.667 C728.444,406.667 728.889,406.667 729.333,406.667 C733.555,420.887 737.778,435.112 742.000,449.333 C744.666,464.110 747.334,478.890 750.000,493.667 C751.785,501.853 756.114,521.023 750.667,527.000 C749.771,528.285 744.018,531.072 741.333,530.000 C730.049,525.495 708.394,525.288 698.000,525.667 C714.803,567.183 698.249,642.935 681.000,658.667 C681.222,658.000 681.444,657.333 681.667,656.667 C681.546,651.242 685.780,646.404 688.333,640.667 C690.600,635.573 691.147,627.618 693.000,623.333 C692.556,623.444 692.111,623.556 691.667,623.667 C680.778,658.341 655.927,677.724 627.000,694.333 C624.333,695.961 618.568,699.061 610.333,702.667 C597.121,708.452 574.085,710.479 562.667,709.000 C535.917,705.535 511.171,697.729 493.667,685.000 C491.369,683.329 481.223,678.473 479.333,683.667 C478.025,687.262 483.069,690.974 484.333,692.667 C491.033,701.638 498.511,709.513 506.333,717.333 C533.332,744.324 572.353,781.917 631.667,771.333 C696.315,759.797 742.691,728.081 783.333,692.333 C790.803,685.763 795.665,677.000 802.667,670.000 C800.804,678.074 792.321,685.639 787.667,691.667 C765.098,720.898 731.544,741.533 705.667,754.333 C706.000,754.556 706.889,754.222 710.000,753.333 C718.507,749.560 732.577,744.676 764.333,724.667 C785.349,710.092 794.015,701.102 806.333,688.333 C819.186,675.011 834.895,647.544 844.000,627.000 C846.664,620.989 846.937,613.203 850.000,607.000 C863.598,579.460 868.378,544.795 868.333,504.000 C866.785,503.141 866.150,502.351 864.000,502.000 C864.188,526.333 860.462,551.564 854.667,578.000 C852.506,587.855 851.552,598.653 845.000,603.667 C846.561,578.062 853.580,553.086 856.000,526.333 C857.178,513.309 858.789,499.501 858.333,495.667 C852.471,491.355 843.886,487.333 839.000,484.333 C823.230,474.652 806.585,463.553 789.333,456.000 C785.148,454.167 765.461,447.461 764.000,444.667 C773.480,436.520 780.334,433.219 783.000,429.000 C794.018,411.568 772.356,375.144 771.333,359.667 ZM206.333,139.000 C212.270,146.202 211.914,145.293 211.333,156.000 C212.233,156.533 211.792,156.113 212.333,157.000 C212.444,156.778 212.556,156.555 212.667,156.333 C215.822,154.668 215.862,151.782 218.333,149.667 C218.778,149.889 219.222,150.111 219.667,150.333 C219.809,153.332 220.341,156.954 221.333,158.667 C221.778,158.444 222.222,158.222 222.667,158.000 C223.209,155.099 223.136,154.146 224.667,152.000 C225.222,152.111 225.778,152.222 226.333,152.333 C227.708,158.805 231.487,161.463 235.333,165.333 C237.321,167.334 237.458,170.479 239.333,172.000 C248.329,179.295 273.087,180.826 287.000,185.000 C305.129,190.439 325.164,195.995 343.000,202.333 C357.849,207.610 373.110,210.795 385.000,219.000 C405.887,225.555 426.780,232.112 447.667,238.667 C441.336,232.230 415.560,228.671 412.000,223.667 C420.777,226.111 429.556,228.556 438.333,231.000 C454.199,236.262 464.531,238.624 480.333,242.333 C484.167,243.469 486.172,243.573 490.333,244.667 C492.092,244.022 494.537,243.010 496.333,242.333 C501.111,247.444 505.889,252.556 510.667,257.667 C513.234,259.676 516.978,261.147 518.667,264.000 C520.946,268.681 517.549,275.943 516.000,279.333 C510.706,290.921 512.818,318.245 513.000,334.667 C513.062,340.267 513.766,346.716 513.667,352.667 C512.556,353.333 511.444,354.667 510.333,355.333 C504.402,353.172 501.938,352.536 497.333,350.667 C491.580,348.561 489.929,347.540 488.000,347.333 C486.843,343.645 487.433,345.560 486.000,338.000 C485.625,339.635 485.506,339.585 484.333,340.333 C483.835,330.483 483.777,324.925 483.333,315.000 C482.709,301.038 484.604,285.454 480.000,276.000 C468.993,275.856 460.088,268.104 451.333,264.667 C438.446,260.778 425.554,256.888 412.667,253.000 C380.112,244.528 348.913,237.640 318.000,228.333 C308.240,225.395 298.301,224.212 289.667,220.333 C285.936,218.658 282.850,219.864 279.000,218.333 C262.319,211.703 240.503,209.244 226.000,201.000 C225.028,211.587 226.333,224.721 227.667,237.333 C227.444,243.110 227.222,248.889 227.000,254.667 C227.000,272.998 227.000,291.335 227.000,309.667 C226.999,322.390 226.831,335.562 226.333,351.333 C226.556,359.333 226.778,367.334 227.000,375.333 C227.111,386.999 227.222,398.668 227.333,410.333 C227.222,425.665 227.111,441.001 227.000,456.333 C227.667,477.535 226.494,501.075 229.667,521.000 C229.333,527.555 229.000,534.112 228.667,540.667 C229.000,545.999 229.333,551.334 229.667,556.667 C229.556,561.000 229.444,565.334 229.333,569.667 C230.792,570.156 230.872,569.980 232.000,571.333 C250.195,566.017 268.915,564.977 287.667,560.000 C331.207,548.443 375.614,540.353 416.333,526.333 C438.027,518.864 462.646,514.537 479.333,502.000 C480.333,502.555 481.333,503.111 482.333,503.667 C485.468,498.650 483.000,480.898 483.000,471.000 C483.555,462.667 484.111,454.332 484.667,446.000 C484.667,435.223 484.667,424.443 484.667,413.667 C484.556,404.445 484.444,395.221 484.333,386.000 C485.360,386.846 485.119,387.028 486.333,387.000 C486.444,385.889 486.556,384.778 486.667,383.667 C487.889,384.778 488.950,385.692 492.667,388.000 C499.816,391.213 504.883,392.926 513.000,397.333 C513.273,401.340 513.687,411.213 513.667,415.000 C513.585,429.950 513.002,444.803 513.000,460.000 C513.111,464.888 513.222,469.778 513.333,474.667 C513.556,474.111 513.778,473.555 514.000,473.000 C514.111,473.000 514.222,473.000 514.333,473.000 C515.208,481.715 515.161,526.026 512.000,530.333 C437.786,553.306 359.859,567.122 287.667,591.000 C266.447,596.555 245.220,602.112 224.000,607.667 C221.111,606.468 208.934,614.397 204.667,612.667 C199.880,609.638 195.476,606.438 190.000,603.333 C188.258,585.506 192.072,565.905 195.333,550.333 C195.444,542.890 195.556,535.444 195.667,528.000 C196.672,511.778 194.187,498.678 196.667,495.000 C195.247,490.908 195.759,489.149 196.667,486.667 C197.333,486.333 197.333,477.000 198.000,476.667 C198.111,465.446 198.222,454.221 198.333,443.000 C197.596,432.371 198.145,432.508 198.211,416.145 C198.263,403.143 198.286,399.331 198.283,392.173 C198.269,358.289 198.181,346.638 198.333,332.333 C198.889,310.558 198.856,288.620 198.667,268.333 C199.372,262.361 199.333,260.111 199.667,256.000 C199.667,250.112 199.667,244.222 199.667,238.333 C199.743,230.413 199.558,228.972 199.000,222.667 C198.675,219.190 198.033,216.919 198.000,214.667 C197.465,208.586 197.636,203.488 194.667,188.000 C192.877,178.666 185.618,170.447 181.333,162.667 C183.666,163.222 186.000,163.778 188.333,164.333 C188.775,160.932 190.055,157.579 191.333,155.000 C196.309,148.124 198.467,145.371 206.333,139.000 ZM572.000,154.333 C574.777,171.220 577.556,188.113 580.333,205.000 C592.934,208.314 604.598,211.368 617.000,214.000 C619.913,214.618 628.804,217.450 630.333,216.333 C618.415,203.025 605.068,191.115 593.000,178.000 C586.001,170.112 578.999,162.221 572.000,154.333 ZM671.000,162.667 C676.400,170.250 686.082,180.296 674.667,190.667 C671.727,193.337 666.527,193.104 663.333,195.667 C667.776,202.243 677.538,203.225 683.667,197.333 C691.184,190.107 689.335,179.191 684.000,171.333 C681.031,166.960 678.433,162.532 671.000,162.667 ZM218.333,190.000 C217.983,199.101 218.755,201.699 218.667,212.000 C218.570,223.176 218.258,229.492 219.000,244.333 C219.333,244.444 219.667,244.556 220.000,244.667 C220.573,232.195 222.126,197.059 218.333,190.000 ZM233.333,195.667 C233.333,196.333 233.333,197.000 233.333,197.667 C240.956,199.440 245.524,200.598 259.667,205.667 C281.998,211.555 304.336,218.445 326.667,224.333 C333.018,226.298 357.670,235.696 362.667,234.333 C358.072,231.151 352.542,230.371 346.667,228.333 C336.585,224.836 325.127,220.569 314.667,217.667 C303.562,214.586 297.204,213.088 290.333,211.333 C279.817,208.647 278.012,207.351 272.333,205.667 C254.895,200.714 252.403,200.034 233.333,195.667 ZM772.667,205.667 C772.889,205.889 773.111,206.111 773.333,206.333 C773.111,206.111 772.889,205.889 772.667,205.667 ZM191.667,211.333 C192.318,211.872 192.396,219.998 191.667,224.000 C190.127,232.453 187.959,240.680 184.667,248.333 C175.700,269.176 166.804,288.898 157.000,309.000 C151.137,321.022 141.583,334.859 141.000,351.000 C146.907,345.816 149.401,334.695 153.000,327.333 C161.274,310.409 170.652,292.996 181.667,278.667 C183.737,275.973 184.876,271.955 187.667,270.000 C184.223,277.888 180.777,285.779 177.333,293.667 C169.610,309.982 162.606,326.011 155.000,341.667 C150.383,351.169 147.254,361.684 143.333,371.000 C142.138,373.839 142.547,373.905 141.000,378.000 C139.870,378.035 140.444,378.667 138.667,378.667 C136.334,385.666 135.333,389.001 133.000,396.000 C128.223,413.665 123.444,431.335 118.667,449.000 C116.000,464.110 113.333,479.224 110.667,494.333 C109.510,500.690 112.333,502.694 111.333,509.000 C105.860,543.519 106.874,589.772 117.667,625.000 C121.550,637.677 124.903,650.190 129.000,662.000 C130.465,666.222 130.657,671.329 133.333,674.333 C130.067,651.460 121.589,629.702 117.333,606.667 C114.372,590.638 117.103,573.921 114.333,557.333 C114.444,553.667 114.556,550.000 114.667,546.333 C112.904,533.680 116.509,468.864 124.667,439.000 C124.778,439.000 128.011,430.883 127.000,433.000 C127.222,433.111 119.111,492.556 119.333,492.667 C115.786,520.915 117.253,568.770 124.000,595.333 C126.291,604.355 126.024,615.210 130.000,622.667 C130.555,626.000 131.111,629.334 131.667,632.667 C136.528,646.400 139.796,663.361 146.333,676.333 C159.325,702.111 169.386,729.905 184.000,754.000 C199.249,779.142 218.777,800.210 239.000,819.333 C253.286,832.843 268.007,845.849 284.667,857.000 C289.918,860.515 295.284,868.646 301.667,870.333 C301.667,870.444 301.667,870.556 301.667,870.667 C291.260,869.723 267.445,853.009 256.667,846.333 C226.124,827.418 201.047,803.528 173.667,781.667 C163.003,773.153 145.245,757.450 139.667,744.667 C139.995,744.152 139.921,743.531 140.000,742.667 C136.925,736.771 133.537,735.752 129.333,729.000 C123.154,716.950 107.309,689.516 105.333,685.000 C98.738,669.919 95.067,653.764 90.333,637.000 C88.111,627.668 85.889,618.332 83.667,609.000 C83.145,642.819 93.859,668.401 97.000,699.333 C96.889,699.333 96.778,699.333 96.667,699.333 C96.667,699.111 96.667,698.889 96.667,698.667 C94.222,692.778 91.778,686.888 89.333,681.000 C85.578,671.794 81.391,661.574 78.667,651.333 C76.778,639.557 74.889,627.777 73.000,616.000 C72.444,607.001 71.889,597.999 71.333,589.000 C70.667,581.001 70.000,572.999 69.333,565.000 C69.077,553.289 68.782,539.234 69.333,525.667 C69.333,521.667 69.333,517.666 69.333,513.667 C70.000,501.779 70.667,489.888 71.333,478.000 C74.233,468.467 73.005,457.216 75.667,447.333 C81.059,427.308 83.372,405.826 90.000,386.667 C96.857,366.843 104.633,348.615 112.333,329.333 C114.000,325.889 115.667,322.444 117.333,319.000 C117.555,319.222 117.778,319.444 118.000,319.667 C112.556,338.443 107.111,357.224 101.667,376.000 C99.556,388.110 97.444,400.223 95.333,412.333 C90.235,432.054 84.422,458.025 86.333,479.000 C86.444,479.000 86.556,479.000 86.667,479.000 C87.887,462.582 92.511,442.592 96.333,426.667 C99.721,412.550 100.426,398.827 104.333,384.000 C113.823,347.991 128.580,317.175 144.333,287.667 C150.333,275.668 156.334,263.665 162.333,251.667 C172.110,238.224 181.890,224.776 191.667,211.333 ZM247.000,229.333 C251.673,232.778 257.296,239.259 266.000,242.333 C276.172,245.926 321.056,259.209 309.667,286.667 C307.695,291.419 303.903,293.602 300.667,297.000 C300.667,297.222 300.667,297.444 300.667,297.667 C318.945,310.370 322.409,345.571 295.333,351.667 C284.500,354.105 263.799,347.898 258.333,350.667 C256.837,352.689 256.050,354.918 254.333,356.667 C250.700,356.543 248.722,354.871 246.667,353.333 C245.889,353.889 245.111,354.444 244.333,355.000 C240.359,350.424 243.559,343.348 244.000,337.000 C245.149,320.456 244.457,308.926 244.667,293.000 C244.286,278.101 244.695,257.739 244.333,254.667 C244.504,251.540 238.642,233.701 240.667,230.000 C240.778,229.889 242.222,230.444 242.333,230.333 C243.713,230.648 246.740,229.775 247.000,229.333 ZM802.667,232.333 C803.566,232.867 803.126,232.446 803.667,233.333 C803.333,233.000 803.000,232.667 802.667,232.333 ZM803.667,233.333 C804.566,233.867 804.126,233.446 804.667,234.333 C804.333,234.000 804.000,233.667 803.667,233.333 ZM728.667,233.667 C729.307,234.131 728.866,233.700 729.333,234.333 C729.111,234.111 728.889,233.889 728.667,233.667 ZM809.667,239.333 C809.889,239.555 810.111,239.778 810.333,240.000 C810.111,239.778 809.889,239.555 809.667,239.333 ZM264.333,252.667 C263.333,253.222 262.333,253.778 261.333,254.333 C261.600,262.149 259.736,282.284 262.667,287.333 C271.893,288.941 285.997,290.813 290.667,283.667 C300.581,268.496 277.336,253.193 264.333,252.667 ZM744.000,267.333 C744.222,267.333 744.444,267.333 744.667,267.333 C744.444,267.333 744.222,267.333 744.000,267.333 ZM187.333,269.333 C187.974,269.797 187.533,269.367 188.000,270.000 C187.778,269.778 187.555,269.556 187.333,269.333 ZM320.584,282.581 C322.116,282.797 322.833,282.924 323.250,283.581 C323.902,282.762 323.439,283.446 323.584,282.581 C327.333,284.259 333.014,292.536 335.917,299.248 C336.472,302.247 337.028,305.248 337.584,308.248 C335.612,314.447 332.128,319.659 329.917,326.248 C329.125,330.948 328.361,336.359 327.917,341.581 C343.867,345.394 352.161,331.205 355.917,316.914 C357.438,311.126 355.853,306.332 359.584,302.581 C360.809,302.544 361.471,301.444 362.584,302.248 C363.492,302.430 363.275,302.458 364.250,303.248 C364.250,302.692 364.250,302.136 364.250,301.581 C365.718,302.614 364.328,302.464 365.917,302.248 C367.325,314.525 362.385,342.226 370.917,350.914 C373.764,349.973 376.249,351.292 377.250,353.248 C378.410,354.386 379.522,357.837 378.584,359.914 C377.421,362.113 376.064,361.363 373.584,362.248 C360.945,366.753 355.464,354.855 352.917,346.248 C352.695,346.359 352.472,346.470 352.250,346.581 C347.276,360.871 320.574,356.497 319.917,350.914 C318.817,341.564 322.185,317.311 317.917,301.248 C316.802,297.052 318.181,283.636 319.917,283.581 C320.096,282.670 319.726,283.406 320.584,282.581 ZM421.333,281.333 C429.339,281.613 433.798,287.920 433.333,298.000 C433.160,301.757 433.309,303.800 431.000,305.333 C428.746,297.443 415.119,294.936 421.333,281.333 ZM382.000,288.333 C383.000,288.889 384.000,289.444 385.000,290.000 C385.755,288.583 385.186,289.990 386.667,289.333 C388.555,293.111 390.445,296.889 392.333,300.667 C393.425,303.093 392.537,306.438 394.000,308.333 C394.111,308.555 394.222,308.778 394.333,309.000 C394.556,308.889 394.778,308.778 395.000,308.667 C397.276,302.743 402.948,301.281 409.000,302.000 C412.072,306.563 417.998,315.010 411.333,321.000 C411.434,317.488 410.862,315.523 410.000,313.333 C409.333,313.000 408.667,312.667 408.000,312.333 C397.557,314.358 391.461,332.188 393.000,345.000 C393.537,349.473 396.266,357.195 394.000,362.000 C391.584,362.278 391.145,364.903 388.667,365.667 C385.840,366.538 383.850,364.386 381.667,364.333 C382.555,361.445 383.444,358.555 384.333,355.667 C384.333,350.556 384.333,345.444 384.333,340.333 C382.594,323.787 384.943,302.220 378.667,290.333 C378.889,290.000 379.111,289.667 379.333,289.333 C379.889,289.889 380.444,290.444 381.000,291.000 C381.000,290.222 381.000,289.444 381.000,288.667 C381.867,288.525 381.182,288.992 382.000,288.333 ZM263.667,295.000 C260.695,298.885 259.446,328.547 262.667,333.333 C265.093,334.563 267.564,336.890 270.333,338.000 C279.281,341.586 296.903,339.854 301.000,331.333 C303.368,326.409 299.492,319.762 298.000,316.333 C291.318,300.980 278.931,296.537 263.667,295.000 ZM789.333,296.333 C788.765,297.817 787.407,299.534 787.667,301.333 C791.648,308.195 794.716,313.584 798.000,319.000 C805.777,332.110 825.221,365.445 829.000,373.333 C830.622,373.952 830.262,373.463 832.667,373.000 C830.245,366.007 829.436,363.900 826.333,358.667 C822.964,352.982 817.116,342.722 813.333,336.000 C809.334,330.556 803.000,318.111 799.000,312.667 C795.904,308.085 794.325,304.222 789.333,296.333 ZM421.333,305.333 C428.386,308.385 432.718,314.650 436.000,321.000 C435.333,325.777 434.667,330.556 434.000,335.333 C429.521,344.906 430.638,360.280 426.000,376.000 C424.827,371.807 423.882,369.006 423.333,366.000 C423.206,358.000 423.012,357.150 422.333,352.000 C422.333,357.333 422.084,357.370 421.667,358.667 C421.394,353.620 420.888,349.637 421.000,346.333 C420.111,333.224 419.222,320.110 418.333,307.000 C419.878,306.689 420.478,306.265 421.333,305.333 ZM784.667,308.333 C784.333,308.555 783.667,313.111 783.333,313.333 C786.126,318.120 789.126,323.685 802.333,344.000 C807.408,351.806 809.802,355.901 819.333,373.333 C821.000,373.555 822.667,373.778 824.333,374.000 C820.733,367.829 813.265,354.423 806.835,343.138 C796.904,325.708 789.908,315.620 784.667,308.333 ZM257.000,310.000 C256.907,314.788 256.096,322.003 257.667,325.667 C257.444,320.445 257.222,315.222 257.000,310.000 ZM876.667,310.667 C887.192,322.429 897.353,335.442 907.000,348.000 C910.222,352.222 913.445,356.445 916.667,360.667 C917.656,355.567 918.679,353.372 919.333,348.667 C914.364,343.825 904.850,334.580 901.333,331.333 C891.784,322.516 885.522,314.274 876.667,310.667 ZM893.667,310.667 C904.554,319.332 915.446,328.001 926.333,336.667 C926.941,335.503 927.176,334.622 926.667,332.667 C922.778,330.000 916.888,326.000 913.000,323.333 C906.379,318.904 899.218,314.147 893.667,310.667 ZM805.333,866.333 C805.020,887.981 785.648,894.472 770.333,901.667 C767.334,901.778 763.333,902.889 760.333,903.000 C747.618,902.420 738.238,899.040 731.333,890.667 C731.444,890.556 731.556,890.444 731.667,890.333 C751.512,897.978 760.145,901.059 776.000,888.000 C777.513,886.754 781.080,884.450 781.333,882.667 C782.000,881.889 782.667,881.111 783.333,880.333 C785.164,877.411 791.185,869.916 785.333,866.000 C778.497,875.011 755.593,887.566 740.333,881.000 C740.333,880.889 740.333,880.778 740.333,880.667 C761.089,881.048 777.552,857.333 777.333,840.667 C779.395,840.413 780.382,839.871 781.667,839.000 C786.758,841.668 792.163,843.437 800.000,842.667 C796.924,827.309 799.338,812.235 815.667,810.667 C820.057,810.245 831.290,816.801 829.000,820.000 C829.111,819.778 829.222,819.556 829.333,819.333 C827.259,818.718 824.756,815.208 821.333,814.333 C821.333,814.444 821.333,814.556 821.333,814.667 C823.000,816.444 824.667,818.222 826.333,820.000 C816.242,817.142 812.676,823.515 809.667,830.667 C810.394,837.546 819.481,844.686 827.000,842.000 C835.409,838.996 851.497,821.282 842.333,809.000 C841.326,807.650 838.102,802.422 836.667,801.667 C834.766,800.667 833.973,801.655 832.667,800.333 C832.667,800.222 832.667,800.111 832.667,800.000 C834.851,798.935 837.571,793.145 839.333,793.333 C840.252,792.427 840.868,792.764 842.333,793.000 C845.701,803.452 860.842,799.939 863.667,789.333 C860.042,784.992 855.239,785.053 851.333,778.667 C842.008,763.418 855.115,738.762 868.333,734.667 C870.031,734.141 871.864,735.112 872.667,735.333 C875.666,735.333 878.667,735.333 881.667,735.333 C886.409,737.008 893.354,743.462 895.000,748.333 C899.647,762.085 889.937,769.878 879.667,763.333 C876.479,752.285 883.686,753.856 873.333,745.333 C862.779,744.621 860.478,747.265 858.000,757.667 C857.321,760.517 854.845,766.944 856.667,771.000 C861.923,782.705 888.977,783.547 900.000,774.333 C906.177,769.170 910.850,751.203 906.333,740.333 C904.763,736.553 900.191,734.878 899.000,731.333 C897.118,725.733 899.306,720.278 903.667,718.000 C908.137,716.119 911.735,720.978 918.000,715.667 C925.266,709.507 930.555,689.169 926.000,679.667 C923.849,675.180 919.687,673.196 916.000,670.000 C916.000,669.889 916.000,669.778 916.000,669.667 C930.541,669.475 927.427,650.837 920.333,644.667 C918.714,643.258 911.906,639.950 910.667,642.667 C909.222,645.666 907.778,648.667 906.333,651.667 C901.667,658.666 896.999,665.667 892.333,672.667 C892.667,673.111 893.000,673.556 893.333,674.000 C903.942,676.342 910.792,689.472 907.667,703.667 C905.577,713.156 894.919,723.644 884.667,725.667 C886.000,723.889 887.333,722.111 888.667,720.333 C888.026,719.869 888.467,720.299 888.000,719.667 C887.667,719.889 887.333,720.111 887.000,720.333 C883.793,721.985 882.964,725.248 878.333,725.667 C878.000,725.556 877.667,725.444 877.333,725.333 C877.444,725.111 877.556,724.889 877.667,724.667 C885.251,722.169 900.501,701.183 886.667,695.667 C881.155,694.292 863.027,717.947 859.667,722.667 C844.162,744.440 824.991,767.460 806.333,786.333 C798.418,794.340 788.414,801.263 781.333,810.000 C787.999,805.223 794.667,800.444 801.333,795.667 C801.333,796.111 801.333,796.556 801.333,797.000 C812.712,791.092 825.695,777.707 834.000,767.333 C837.444,763.445 840.889,759.555 844.333,755.667 C840.856,763.326 832.055,769.789 826.667,776.000 C811.987,792.922 797.751,808.753 780.000,822.667 C762.016,836.762 745.087,853.503 725.333,865.667 C714.748,872.185 703.505,875.111 691.000,880.333 C687.334,882.333 683.666,884.333 680.000,886.333 C676.664,889.416 675.517,893.210 670.667,895.000 C664.445,896.666 658.222,898.333 652.000,900.000 C635.191,906.590 617.972,913.523 599.000,918.000 C570.466,924.733 528.540,928.051 529.000,928.000 C493.110,928.515 467.201,928.952 440.333,925.333 C411.627,921.467 392.049,915.814 376.333,910.000 C360.617,904.186 354.998,901.332 334.333,893.333 C325.667,889.112 316.999,884.888 308.333,880.667 C308.555,880.333 308.778,880.000 309.000,879.667 C309.111,879.667 309.222,879.667 309.333,879.667 C323.773,881.524 334.857,889.626 349.000,892.333 C345.310,888.573 339.148,888.414 334.333,885.667 C328.334,881.667 322.333,877.666 316.333,873.667 C296.686,860.047 279.213,844.861 261.000,830.000 C252.334,821.779 243.666,813.555 235.000,805.333 C233.445,803.000 231.889,800.666 230.333,798.333 C224.978,792.857 220.085,787.111 215.000,781.333 C213.222,780.000 211.444,778.666 209.667,777.333 C200.964,766.114 190.184,749.688 182.667,737.000 C173.853,722.124 167.575,710.082 161.000,693.333 C159.222,687.556 157.444,681.777 155.667,676.000 C155.204,673.494 156.794,671.712 156.000,668.667 C154.776,663.977 151.306,658.401 149.667,653.333 C145.820,641.442 142.832,628.524 139.000,615.333 C136.667,603.223 134.333,591.110 132.000,579.000 C131.778,575.667 131.555,572.333 131.333,569.000 C128.953,558.366 130.100,547.062 129.000,535.000 C128.778,532.778 128.555,530.555 128.333,528.333 C128.889,524.000 129.444,519.666 130.000,515.333 C129.968,511.339 127.051,492.705 129.000,488.333 C130.834,484.218 128.644,477.599 130.333,472.333 C133.608,462.124 134.262,449.653 137.667,440.333 C140.118,433.622 140.156,427.325 143.000,421.667 C143.667,418.667 144.333,415.666 145.000,412.667 C149.278,403.386 153.023,385.360 160.000,379.333 C160.111,379.333 160.222,379.333 160.333,379.333 C160.333,379.444 160.333,379.556 160.333,379.667 C135.018,458.618 153.498,594.755 178.667,651.667 C185.474,667.060 195.020,681.438 203.333,695.333 C207.000,701.999 210.667,708.667 214.333,715.333 C221.005,725.503 229.823,735.765 238.667,744.000 C247.110,751.863 246.364,751.023 255.000,756.667 C249.984,753.435 251.430,754.187 241.333,743.333 C232.415,733.746 218.797,713.676 208.000,697.667 C188.717,669.075 175.431,641.313 173.000,631.000 C173.111,631.000 173.048,628.497 174.291,630.971 C175.449,634.048 176.806,637.111 177.000,637.333 C178.304,642.239 197.133,674.535 199.667,678.333 C201.222,681.555 208.794,693.893 217.333,705.000 C225.507,717.034 231.308,723.436 238.333,732.333 C250.892,748.238 265.562,763.959 281.333,776.667 C292.121,785.359 301.702,796.374 312.667,805.000 C327.922,817.001 348.387,827.029 367.000,835.000 C380.781,840.901 397.114,847.755 411.000,851.333 C413.833,852.063 415.891,852.491 416.000,852.667 C420.406,854.102 421.337,854.610 424.000,855.000 C424.328,855.524 425.253,856.281 425.333,857.000 C430.723,858.470 433.269,860.238 450.333,862.667 C464.665,863.111 479.001,863.556 493.333,864.000 C501.444,864.111 506.556,864.222 514.667,864.333 C512.874,864.290 518.778,864.111 518.000,864.000 C604.882,857.262 672.505,835.249 730.667,800.000 C745.598,790.951 759.508,779.824 773.333,769.667 C786.413,760.057 799.504,748.802 812.333,738.000 C816.999,734.000 820.444,729.615 825.667,723.667 C823.929,727.912 822.852,728.689 817.667,736.333 C810.845,744.297 808.210,747.281 799.333,754.333 C790.600,761.769 783.752,766.978 779.000,772.667 C773.108,777.635 766.339,781.648 760.000,786.333 C756.066,789.241 755.294,789.947 751.333,792.667 C749.290,794.070 744.699,796.866 742.667,798.000 C741.366,798.725 739.950,800.723 738.667,801.667 C732.778,805.666 726.888,809.667 721.000,813.667 C721.000,813.889 721.000,814.111 721.000,814.333 C721.111,814.333 721.222,814.333 721.333,814.333 C722.667,813.889 724.000,813.444 725.333,813.000 C718.827,820.401 708.985,827.316 701.000,834.000 C701.667,834.000 702.333,834.000 703.000,834.000 C733.420,821.146 755.762,799.114 779.000,779.000 C792.079,767.680 806.096,756.803 817.667,744.000 C855.701,701.914 887.060,653.140 913.667,599.667 C913.889,599.667 914.111,599.667 914.333,599.667 C913.990,604.263 910.066,624.464 911.333,626.333 C931.618,616.591 951.351,643.850 948.000,664.333 C947.131,669.644 944.538,672.518 943.333,676.333 C943.889,680.555 944.444,684.778 945.000,689.000 C944.765,699.035 941.931,711.173 936.333,718.000 C932.380,722.822 928.036,722.691 923.667,726.333 C925.628,728.678 936.362,742.143 931.333,748.000 C930.869,748.641 931.300,748.200 930.667,748.667 C930.294,743.302 927.421,727.734 920.000,727.333 C921.209,731.225 924.931,733.766 926.333,738.333 C931.539,755.290 922.689,767.762 916.333,776.333 C915.889,779.444 915.444,782.556 915.000,785.667 C913.024,794.891 911.991,801.418 906.667,808.000 C900.733,815.335 889.988,818.329 883.000,824.667 C884.708,828.465 883.276,834.355 881.333,836.667 C881.782,834.269 883.344,829.877 881.667,827.667 C881.556,827.667 881.444,827.667 881.333,827.667 C881.333,827.889 881.333,828.111 881.333,828.333 C880.352,832.722 877.950,843.575 871.667,848.333 C867.503,851.486 859.610,853.563 856.333,853.333 C853.334,853.222 850.333,853.111 847.333,853.000 C848.616,852.713 837.806,860.709 830.000,863.333 C822.194,865.958 817.552,867.305 810.667,867.333 C810.147,868.349 808.964,871.637 808.000,874.000 C806.412,877.893 803.667,882.178 800.000,886.667 C800.000,886.556 800.000,886.444 800.000,886.333 C801.333,884.445 804.214,878.319 805.333,875.000 C805.333,875.000 806.674,870.352 807.333,867.000 C806.333,866.778 806.333,866.556 805.333,866.333 ZM788.333,380.667 C787.785,390.273 798.767,407.741 801.000,420.000 C802.940,430.654 793.639,435.858 791.667,440.667 C794.388,443.640 815.332,451.907 820.667,454.667 C841.022,464.678 880.827,487.155 882.667,488.333 C886.301,489.814 896.295,496.158 898.333,497.000 C900.918,498.067 903.305,496.980 906.000,498.000 C906.000,497.889 906.000,497.778 906.000,497.667 C901.336,487.490 887.598,464.811 883.153,459.038 C869.089,440.773 866.247,436.831 851.667,422.333 C837.086,407.835 828.865,403.253 815.667,395.667 C806.296,389.443 798.758,385.561 788.333,380.667 ZM246.667,382.000 C250.576,381.968 250.720,383.968 253.333,384.667 C255.444,384.444 257.556,384.222 259.667,384.000 C261.811,384.588 270.579,389.550 271.000,392.667 C271.444,392.444 271.889,392.222 272.333,392.000 C270.334,408.443 268.333,424.891 266.333,441.333 C266.800,444.041 267.267,445.192 270.000,444.667 C270.222,444.556 270.444,444.444 270.667,444.333 C275.774,439.299 272.924,442.250 283.000,432.000 C293.076,421.750 303.909,408.144 298.333,388.667 C302.222,390.444 306.111,392.222 310.000,394.000 C312.555,396.333 315.111,398.667 317.667,401.000 C328.186,411.731 317.279,417.811 312.667,423.667 C308.201,429.336 304.353,434.612 299.000,439.333 C296.979,441.116 294.070,444.070 291.333,447.000 C293.013,450.008 295.522,453.786 297.333,456.333 C305.181,467.369 314.232,475.434 323.333,484.333 C323.720,494.012 318.717,500.167 309.667,500.333 C307.689,500.370 305.723,500.470 304.667,499.667 C299.866,496.022 294.601,478.322 291.000,472.000 C288.000,467.223 284.333,461.111 281.333,456.333 C276.398,459.800 273.311,461.899 268.000,466.333 C269.815,472.917 273.504,478.407 275.000,484.000 C277.296,492.586 269.738,498.459 268.333,504.333 C268.667,504.333 268.893,504.476 269.333,504.333 C273.063,503.108 273.796,502.839 276.667,502.000 C273.000,509.705 249.828,526.473 243.333,509.333 C241.660,504.917 245.020,498.849 246.333,495.667 C250.432,485.735 254.433,477.730 256.333,465.333 C258.454,451.502 253.598,420.601 249.333,408.333 C247.054,401.777 239.167,391.621 243.333,382.667 C244.444,382.444 245.556,382.222 246.667,382.000 ZM397.000,385.333 C399.296,385.559 399.643,386.314 401.000,387.333 C401.310,393.413 406.870,405.366 405.333,409.667 C404.889,410.222 404.444,410.778 404.000,411.333 C403.667,411.111 403.333,410.889 403.000,410.667 C400.740,401.920 377.415,402.222 390.667,387.667 C392.259,385.917 394.536,386.317 397.000,385.333 ZM451.667,385.333 C459.931,385.269 460.644,391.560 464.333,395.000 C464.324,400.844 462.016,406.575 459.667,410.333 C459.444,410.222 459.222,410.111 459.000,410.000 C458.412,405.249 449.718,398.858 447.667,396.000 C448.033,391.641 449.618,387.983 451.667,385.333 ZM646.333,391.333 C653.595,395.397 670.361,423.618 672.333,434.000 C672.222,434.000 672.111,434.000 672.000,434.000 C663.445,419.779 654.888,405.554 646.333,391.333 ZM374.333,405.333 C375.718,411.588 371.832,426.038 373.333,435.333 C374.778,443.999 376.222,452.667 377.667,461.333 C381.068,470.354 386.230,478.262 383.667,488.333 C367.844,497.862 371.296,482.050 366.000,473.333 C364.889,473.333 363.778,473.333 362.667,473.333 C359.445,478.222 356.222,483.112 353.000,488.000 C348.981,491.079 335.594,492.961 331.667,487.667 C318.026,469.276 337.383,422.691 349.333,416.333 C355.094,413.268 359.368,416.217 364.333,417.000 C366.405,414.669 366.698,410.006 368.333,408.333 C370.082,406.545 372.387,407.776 374.333,405.333 ZM398.667,497.667 C399.555,497.778 400.445,497.889 401.333,498.000 C400.239,496.487 398.938,494.464 398.000,494.000 C399.378,493.126 405.274,496.572 409.000,496.667 C424.151,497.051 434.251,490.638 431.667,472.000 C431.444,471.889 431.222,471.778 431.000,471.667 C428.395,473.913 423.463,477.723 418.333,475.333 C405.795,469.222 406.300,434.504 415.333,424.000 C418.914,419.836 424.859,417.662 430.000,415.000 C429.576,412.989 428.962,410.728 429.667,408.000 C430.944,408.512 432.523,406.721 435.333,408.333 C436.681,409.107 437.171,410.611 438.333,411.333 C438.222,411.000 438.111,410.667 438.000,410.333 C439.663,412.236 442.355,414.234 443.000,417.333 C444.070,421.574 440.675,422.839 439.667,425.667 C439.667,430.111 439.667,434.556 439.667,439.000 C439.666,463.342 445.773,487.127 433.667,503.000 C425.387,513.856 400.239,512.550 398.667,497.667 ZM580.333,407.667 C577.525,409.197 574.586,407.058 572.667,410.000 C572.667,410.222 572.667,410.444 572.667,410.667 C579.004,420.421 592.211,426.809 601.000,434.333 C613.495,445.030 625.465,456.309 638.667,466.333 C646.242,472.086 652.332,480.817 661.667,484.667 C658.556,481.445 655.444,478.222 652.333,475.000 C656.291,476.778 659.455,479.706 663.333,481.333 C663.763,479.980 664.263,479.853 664.000,478.667 C664.956,473.908 658.969,465.200 657.333,460.667 C650.482,441.679 640.963,424.305 628.000,411.333 C611.430,411.451 597.589,407.776 580.333,407.667 ZM441.333,414.333 C441.444,414.555 441.556,414.778 441.667,415.000 C441.556,414.778 441.444,414.555 441.333,414.333 ZM455.667,414.667 C456.555,414.889 457.444,415.111 458.333,415.333 C459.818,420.285 462.329,425.124 463.333,431.000 C465.222,442.054 460.298,451.971 458.333,460.667 C457.114,466.061 458.013,473.566 455.333,477.667 C454.874,478.553 455.157,478.280 454.000,479.000 C454.000,478.778 454.000,478.556 454.000,478.333 C450.946,475.185 451.418,469.230 450.667,464.333 C448.972,453.294 446.778,422.375 455.667,414.667 ZM393.000,416.333 C395.222,416.444 397.445,416.556 399.667,416.667 C403.792,418.528 406.414,423.788 404.667,430.000 C401.239,442.189 399.916,457.297 396.667,471.667 C395.545,476.624 395.738,483.327 392.333,486.000 C390.889,470.890 389.444,455.776 388.000,440.667 C387.778,435.112 387.555,429.555 387.333,424.000 C388.444,423.000 389.556,422.000 390.667,421.000 C390.667,419.667 390.667,418.333 390.667,417.000 C391.444,416.778 392.222,416.556 393.000,416.333 ZM633.333,416.333 C633.556,416.556 633.778,416.778 634.000,417.000 C633.778,416.778 633.556,416.556 633.333,416.333 ZM353.667,430.667 C352.889,430.889 352.111,431.111 351.333,431.333 C347.607,433.946 332.444,458.899 339.333,466.667 C339.772,460.553 341.496,455.778 343.000,451.000 C343.111,451.000 343.222,451.000 343.333,451.000 C342.459,460.525 341.047,469.062 345.667,475.333 C358.977,476.607 362.860,459.218 360.667,447.000 C359.454,440.244 361.183,431.074 353.667,430.667 ZM424.667,428.000 C418.636,433.564 410.874,452.188 419.667,460.333 C422.696,458.371 426.829,456.386 428.333,453.000 C429.698,449.928 429.280,432.625 428.333,428.667 C427.111,428.444 425.889,428.222 424.667,428.000 ZM722.000,432.000 C715.070,448.602 709.912,465.924 702.000,481.333 C697.112,489.666 692.222,498.001 687.333,506.333 C695.262,507.250 727.178,513.982 731.000,512.000 C737.174,508.798 737.252,496.131 735.667,487.333 C733.194,473.610 730.643,460.895 727.333,449.000 C725.702,443.138 725.167,436.426 722.000,432.000 ZM222.000,433.000 C221.556,460.331 221.111,487.669 220.667,515.000 C220.556,521.444 220.444,527.889 220.333,534.333 C220.271,551.956 219.241,564.699 221.000,579.667 C221.667,579.667 222.333,579.667 223.000,579.667 C223.222,579.556 223.444,579.444 223.667,579.333 C224.027,560.544 223.870,549.414 223.529,534.348 C223.778,512.669 223.889,491.331 224.000,470.000 C224.000,462.052 225.576,436.440 222.000,433.000 ZM121.000,442.000 C121.111,442.222 121.222,442.444 121.333,442.667 C121.222,442.444 121.111,442.222 121.000,442.000 ZM120.333,444.667 C120.444,444.889 120.556,445.111 120.667,445.333 C120.556,445.111 120.444,444.889 120.333,444.667 ZM343.333,450.000 C343.444,450.333 343.556,450.667 343.667,451.000 C343.556,451.000 343.444,451.000 343.333,451.000 C343.333,450.667 343.333,450.333 343.333,450.000 ZM904.667,454.333 C904.667,454.556 904.667,454.778 904.667,455.000 C904.667,454.778 904.667,454.556 904.667,454.333 ZM117.333,458.000 C117.444,458.222 117.556,458.444 117.667,458.667 C117.556,458.444 117.444,458.222 117.333,458.000 ZM651.667,474.333 C651.889,474.555 652.111,474.778 652.333,475.000 C651.692,474.536 652.134,474.966 651.667,474.333 ZM573.000,481.333 C576.466,481.881 585.371,482.379 585.667,489.000 C584.196,493.082 582.201,494.672 577.000,495.000 C573.707,490.980 570.436,487.904 570.000,482.667 C571.000,482.222 572.000,481.778 573.000,481.333 ZM546.333,485.000 C560.617,483.532 572.629,487.835 563.333,502.667 C551.442,505.854 546.227,497.456 546.333,485.000 ZM648.667,506.333 C648.889,506.555 649.111,506.778 649.333,507.000 C648.692,506.536 649.134,506.966 648.667,506.333 ZM615.667,507.000 C615.667,507.222 615.667,507.444 615.667,507.667 C615.667,507.444 615.667,507.222 615.667,507.000 ZM649.333,507.000 C649.556,507.222 649.778,507.444 650.000,507.667 C649.359,507.203 649.800,507.633 649.333,507.000 ZM616.333,507.333 C616.998,508.497 629.828,521.493 631.333,522.667 C631.889,522.444 632.444,522.222 633.000,522.000 C633.000,521.556 633.000,521.111 633.000,520.667 C629.667,517.445 626.333,514.222 623.000,511.000 C620.778,509.778 618.555,508.555 616.333,507.333 ZM662.667,609.000 C662.111,609.000 661.555,609.000 661.000,609.000 C657.368,630.602 632.509,637.695 633.667,665.333 C653.273,650.298 670.890,629.977 679.000,603.667 C679.778,599.112 680.556,594.555 681.333,590.000 C680.733,586.770 678.230,576.302 679.000,574.333 C678.292,572.462 674.000,563.667 674.000,563.667 C672.378,562.437 667.053,559.505 665.333,557.333 C664.556,554.445 663.778,551.555 663.000,548.667 C660.111,542.668 652.164,537.680 645.333,535.667 C634.051,532.341 627.259,539.458 619.667,541.000 C618.849,527.015 600.190,514.115 586.667,522.000 C586.333,522.555 586.000,523.111 585.667,523.667 C585.667,524.111 585.667,524.556 585.667,525.000 C590.687,528.673 594.335,535.751 596.333,542.333 C597.150,545.023 596.874,549.554 598.667,551.333 C603.000,551.556 607.334,551.778 611.667,552.000 C616.333,554.111 621.000,556.222 625.667,558.333 C632.165,552.534 643.077,555.536 648.333,560.000 C662.496,572.029 664.350,586.821 662.667,609.000 ZM465.333,527.333 C454.223,531.000 443.110,534.667 432.000,538.333 C432.111,538.556 432.222,538.778 432.333,539.000 C436.463,537.741 460.706,533.034 466.000,527.333 C465.778,527.333 465.555,527.333 465.333,527.333 ZM403.000,540.333 C389.112,544.444 376.221,547.556 362.333,551.667 C359.915,552.137 357.524,552.743 350.333,555.000 C344.228,556.719 340.648,558.210 338.000,560.333 C338.333,560.556 338.667,560.778 339.000,561.000 C345.890,559.988 350.082,557.900 357.333,555.667 C366.013,552.891 371.667,551.333 379.000,549.667 C387.616,546.489 397.214,543.492 406.667,540.000 C406.667,539.778 406.667,539.555 406.667,539.333 C405.778,539.333 403.889,540.333 403.000,540.333 ZM670.333,540.667 C671.667,543.333 673.000,546.000 674.333,548.667 C674.778,548.667 675.222,548.667 675.667,548.667 C673.889,546.000 672.111,543.333 670.333,540.667 ZM755.000,542.667 C755.222,542.667 755.444,542.667 755.667,542.667 C755.444,542.667 755.222,542.667 755.000,542.667 ZM674.333,547.000 C674.444,547.222 674.556,547.444 674.667,547.667 C674.556,547.444 674.444,547.222 674.333,547.000 ZM496.667,550.333 C504.788,549.831 511.870,550.069 513.333,556.333 C514.328,560.591 506.667,565.506 503.000,562.667 C500.096,561.259 495.383,553.417 496.667,550.333 ZM632.667,563.333 C632.333,563.444 632.000,563.556 631.667,563.667 C632.000,564.111 632.333,564.556 632.667,565.000 C641.210,565.568 644.443,573.694 648.667,575.000 C648.667,574.889 648.667,574.778 648.667,574.667 C644.246,569.747 640.191,564.176 632.667,563.333 ZM499.667,587.667 C493.282,590.313 477.097,599.910 481.000,610.000 C481.000,609.778 481.000,609.555 481.000,609.333 C483.022,606.642 484.245,602.922 487.000,601.000 C495.332,595.186 510.605,593.169 520.667,598.333 C524.836,600.473 526.847,605.139 530.000,608.333 C530.333,608.111 530.667,607.889 531.000,607.667 C531.444,607.000 531.889,606.333 532.333,605.667 C530.896,596.314 516.904,589.899 509.000,588.000 C505.889,587.889 502.777,587.778 499.667,587.667 ZM469.667,594.333 C469.778,594.555 469.889,594.778 470.000,595.000 C469.889,594.778 469.778,594.555 469.667,594.333 ZM554.000,607.333 C541.497,618.307 527.521,646.854 525.000,651.333 C522.250,657.915 517.013,666.437 512.667,679.000 C523.888,681.555 535.112,684.111 546.333,686.667 C549.901,687.546 557.388,690.497 559.667,689.667 C560.363,676.795 560.294,662.557 558.333,647.667 C558.222,642.556 558.111,637.444 558.000,632.333 C557.153,626.916 557.209,610.737 554.667,608.000 C554.444,607.778 554.222,607.556 554.000,607.333 ZM85.333,612.667 C85.333,612.889 85.333,613.111 85.333,613.333 C85.333,613.111 85.333,612.889 85.333,612.667 ZM605.667,615.333 C605.889,615.333 606.111,615.333 606.333,615.333 C606.111,615.333 605.889,615.333 605.667,615.333 ZM334.000,621.000 C370.453,620.911 408.827,654.307 426.333,679.000 C422.703,677.667 421.012,674.228 418.000,672.333 C411.243,668.083 403.873,665.464 396.000,662.333 C396.000,662.667 396.000,663.000 396.000,663.333 C398.485,663.600 403.118,667.591 405.333,668.667 C404.477,669.342 404.194,669.054 403.333,669.333 C400.956,666.797 396.030,666.552 392.333,665.333 C389.556,664.111 386.777,662.889 384.000,661.667 C373.668,659.778 363.332,657.889 353.000,656.000 C344.050,654.025 333.995,655.161 327.000,651.000 C320.793,647.308 311.935,636.040 317.667,626.667 C321.291,620.739 331.712,623.581 334.000,621.000 ZM571.667,624.667 C572.222,639.221 572.778,653.779 573.333,668.333 C574.000,668.555 574.667,668.778 575.333,669.000 C576.889,666.222 578.445,663.444 580.000,660.667 C583.875,648.333 582.686,627.865 571.667,624.667 ZM86.667,643.000 C86.778,643.333 86.889,643.667 87.000,644.000 C86.889,644.000 86.778,644.000 86.667,644.000 C86.667,643.667 86.667,643.333 86.667,643.000 ZM87.000,645.000 C87.111,645.333 87.222,645.667 87.333,646.000 C87.222,646.000 87.111,646.000 87.000,646.000 C87.000,645.667 87.000,645.333 87.000,645.000 ZM87.333,647.333 C87.444,647.556 87.556,647.778 87.667,648.000 C87.556,647.778 87.444,647.556 87.333,647.333 ZM149.000,648.667 C149.000,648.889 149.000,649.111 149.000,649.333 C149.000,649.111 149.000,648.889 149.000,648.667 ZM88.000,650.667 C88.000,651.111 88.000,651.556 88.000,652.000 C88.000,651.556 88.000,651.111 88.000,650.667 ZM279.667,651.000 C308.044,651.051 337.200,661.978 360.000,674.000 C365.774,677.045 379.395,683.609 382.000,689.000 C376.265,686.803 352.331,675.270 343.667,678.667 C351.221,681.222 358.778,683.778 366.333,686.333 C366.333,686.444 366.333,686.556 366.333,686.667 C351.299,684.655 337.228,685.076 323.333,684.333 C309.927,683.617 299.478,691.131 288.667,689.667 C276.079,687.961 262.709,687.707 255.667,678.333 C256.682,669.602 256.928,656.812 262.667,653.333 C267.991,650.106 274.276,653.298 279.667,651.000 ZM682.667,651.333 C682.778,651.555 682.889,651.778 683.000,652.000 C682.889,651.778 682.778,651.555 682.667,651.333 ZM524.000,653.333 C524.111,653.556 524.222,653.778 524.333,654.000 C524.222,653.778 524.111,653.556 524.000,653.333 ZM88.667,654.333 C88.778,654.667 88.889,655.000 89.000,655.333 C88.889,655.333 88.778,655.333 88.667,655.333 C88.667,655.000 88.667,654.667 88.667,654.333 ZM307.333,654.667 C307.555,654.778 307.778,654.889 308.000,655.000 C307.778,654.889 307.555,654.778 307.333,654.667 ZM167.667,655.000 C173.679,680.042 186.875,702.561 199.667,721.333 C203.044,726.289 209.345,736.786 213.667,738.333 C213.667,738.222 213.667,738.111 213.667,738.000 C210.223,732.556 206.777,727.111 203.333,721.667 C195.098,709.265 186.992,695.092 180.667,681.000 C177.918,674.877 172.319,658.431 167.667,655.000 ZM308.667,655.000 C308.889,655.111 309.111,655.222 309.333,655.333 C309.111,655.222 308.889,655.111 308.667,655.000 ZM311.667,655.667 C311.889,655.778 312.111,655.889 312.333,656.000 C312.111,655.889 311.889,655.778 311.667,655.667 ZM312.667,656.000 C313.000,656.111 313.333,656.222 313.667,656.333 C313.333,656.222 313.000,656.111 312.667,656.000 ZM314.000,656.333 C314.333,656.444 314.667,656.556 315.000,656.667 C314.667,656.556 314.333,656.444 314.000,656.333 ZM315.333,656.667 C315.556,656.778 315.778,656.889 316.000,657.000 C315.778,656.889 315.556,656.778 315.333,656.667 ZM316.333,657.000 C316.556,657.111 316.778,657.222 317.000,657.333 C316.778,657.222 316.556,657.111 316.333,657.000 ZM318.000,657.333 C318.222,657.444 318.444,657.556 318.667,657.667 C318.444,657.556 318.222,657.444 318.000,657.333 ZM321.000,658.333 C321.222,658.444 321.444,658.556 321.667,658.667 C321.444,658.556 321.222,658.444 321.000,658.333 ZM322.333,658.667 C322.555,658.778 322.778,658.889 323.000,659.000 C322.778,658.889 322.555,658.778 322.333,658.667 ZM521.333,658.667 C521.222,658.889 521.111,659.111 521.000,659.333 C521.222,659.111 521.444,658.889 521.667,658.667 C521.556,658.667 521.444,658.667 521.333,658.667 ZM324.333,659.333 C324.556,659.444 324.778,659.556 325.000,659.667 C324.778,659.556 324.556,659.444 324.333,659.333 ZM925.667,660.000 C925.778,660.222 925.889,660.444 926.000,660.667 C925.889,660.444 925.778,660.222 925.667,660.000 ZM327.333,660.333 C327.555,660.444 327.778,660.556 328.000,660.667 C327.778,660.556 327.555,660.444 327.333,660.333 ZM328.333,660.667 C328.556,660.778 328.778,660.889 329.000,661.000 C328.778,660.889 328.556,660.778 328.333,660.667 ZM153.667,662.667 C153.667,662.889 153.667,663.111 153.667,663.333 C153.667,663.111 153.667,662.889 153.667,662.667 ZM405.000,669.333 C405.222,669.333 405.444,669.333 405.667,669.333 C405.444,669.333 405.222,669.333 405.000,669.333 ZM593.000,669.333 C593.000,669.555 593.000,669.778 593.000,670.000 C593.000,669.778 593.000,669.555 593.000,669.333 ZM346.667,671.667 C346.889,671.889 347.111,672.111 347.333,672.333 C347.111,672.111 346.889,671.889 346.667,671.667 ZM349.000,672.667 C349.333,672.889 349.667,673.111 350.000,673.333 C349.667,673.111 349.333,672.889 349.000,672.667 ZM94.667,684.667 C94.778,685.000 94.889,685.333 95.000,685.667 C94.889,685.667 94.778,685.667 94.667,685.667 C94.667,685.333 94.667,685.000 94.667,684.667 ZM961.667,697.667 C972.899,698.170 975.711,707.493 970.000,715.333 C967.520,718.739 945.982,731.610 941.000,733.000 C940.697,723.650 949.176,705.148 954.667,700.333 C957.000,699.445 959.334,698.555 961.667,697.667 ZM365.333,702.333 C366.287,705.778 361.574,708.455 360.333,711.000 C356.550,718.762 350.848,730.757 354.333,741.000 C354.444,740.778 354.556,740.556 354.667,740.333 C358.202,737.340 356.344,726.656 360.667,722.667 C358.952,729.085 358.115,734.802 360.333,742.667 C361.198,745.733 364.628,748.909 364.000,752.667 C362.642,760.791 354.721,767.171 346.000,763.333 C336.297,759.064 336.387,748.164 339.333,736.667 C343.279,721.271 355.274,711.789 365.333,702.333 ZM469.667,708.000 C458.670,716.941 427.851,730.911 412.333,734.667 C412.333,734.889 412.333,735.111 412.333,735.333 C424.438,736.611 433.618,737.872 443.943,739.301 C456.055,740.976 465.339,742.751 480.000,742.667 C489.008,742.615 502.349,743.844 510.000,741.000 C510.000,740.778 510.000,740.556 510.000,740.333 C501.873,730.739 491.727,723.362 481.667,715.667 C478.120,712.954 475.497,708.256 469.667,708.000 ZM569.333,709.333 C569.556,709.333 569.778,709.333 570.000,709.333 C569.778,709.333 569.556,709.333 569.333,709.333 ZM573.667,709.333 C573.889,709.333 574.111,709.333 574.333,709.333 C574.111,709.333 573.889,709.333 573.667,709.333 ZM966.667,729.667 C967.555,730.000 968.445,730.333 969.333,730.667 C970.629,733.109 972.327,734.447 972.667,738.000 C968.245,747.095 959.844,753.848 947.333,754.333 C947.333,754.111 947.333,753.889 947.333,753.667 C946.437,752.401 945.154,749.859 945.667,748.333 C946.744,743.069 953.803,733.152 958.000,730.667 C960.889,730.333 963.778,730.000 966.667,729.667 ZM743.667,747.000 C729.575,753.100 723.416,755.795 710.667,761.000 C705.223,762.778 682.444,770.222 677.000,772.000 C685.160,769.807 706.457,763.424 712.000,761.667 C725.193,757.473 733.319,755.618 745.000,749.667 C747.333,748.111 754.000,745.889 756.333,744.333 C756.289,744.307 758.467,743.086 758.333,742.333 C758.632,741.572 759.222,741.222 759.667,740.667 C751.941,743.790 750.073,744.266 743.667,747.000 ZM929.667,741.333 C929.667,741.556 929.667,741.778 929.667,742.000 C929.667,741.778 929.667,741.556 929.667,741.333 ZM728.667,741.667 C728.889,741.667 729.111,741.667 729.333,741.667 C729.111,741.667 728.889,741.667 728.667,741.667 ZM728.000,742.000 C728.222,742.000 728.444,742.000 728.667,742.000 C728.444,742.000 728.222,742.000 728.000,742.000 ZM727.000,742.667 C727.222,742.667 727.444,742.667 727.667,742.667 C727.444,742.667 727.222,742.667 727.000,742.667 ZM726.333,743.000 C726.556,743.000 726.778,743.000 727.000,743.000 C726.778,743.000 726.556,743.000 726.333,743.000 ZM930.000,743.333 C930.000,743.667 930.000,744.000 930.000,744.333 C930.111,744.000 930.222,743.667 930.333,743.333 C930.222,743.333 930.111,743.333 930.000,743.333 ZM723.333,744.667 C723.556,744.667 723.778,744.667 724.000,744.667 C723.778,744.667 723.556,744.667 723.333,744.667 ZM722.667,745.000 C722.889,745.000 723.111,745.000 723.333,745.000 C723.111,745.000 722.889,745.000 722.667,745.000 ZM930.333,745.333 C930.333,745.778 930.333,746.222 930.333,746.667 C930.444,746.667 930.556,746.667 930.667,746.667 C930.556,746.222 930.444,745.778 930.333,745.333 ZM873.000,746.000 C873.222,746.000 873.444,746.000 873.667,746.000 C873.444,746.000 873.222,746.000 873.000,746.000 ZM875.000,746.000 C875.222,746.222 875.444,746.444 875.667,746.667 C875.444,746.444 875.222,746.222 875.000,746.000 ZM719.667,746.667 C719.889,746.667 720.111,746.667 720.333,746.667 C720.111,746.667 719.889,746.667 719.667,746.667 ZM490.333,747.667 C500.221,748.555 510.112,749.444 520.000,750.333 C519.333,749.556 518.667,748.778 518.000,748.000 C508.779,747.889 499.555,747.778 490.333,747.667 ZM939.667,770.000 C964.845,769.030 946.812,805.509 929.000,798.667 C928.684,784.309 931.887,776.172 939.667,770.000 ZM912.000,781.000 C910.667,787.222 909.333,793.445 908.000,799.667 C908.111,799.667 908.222,799.667 908.333,799.667 C909.346,794.675 915.072,786.215 912.000,781.000 ZM748.000,781.333 C748.000,781.444 748.000,781.333 748.000,781.333 ZM879.333,788.667 C879.000,789.222 878.667,789.778 878.333,790.333 C879.669,789.651 878.532,796.447 877.333,798.667 C875.136,802.734 870.994,805.017 867.000,807.333 C867.111,807.889 867.222,808.444 867.333,809.000 C880.539,813.998 896.307,804.355 894.333,789.000 C889.334,788.889 884.333,788.778 879.333,788.667 ZM180.333,797.333 C186.728,798.477 187.552,803.225 191.667,806.333 C196.888,810.111 202.112,813.889 207.333,817.667 C226.931,832.182 254.158,850.150 268.245,858.531 C275.834,863.046 286.273,865.984 290.667,873.333 C283.978,873.324 276.926,868.960 270.667,866.333 C256.644,860.450 243.167,855.496 231.667,847.000 C230.000,844.778 228.640,842.482 225.667,839.333 C214.462,830.523 210.761,826.674 203.667,821.000 C200.180,818.212 181.238,800.329 180.333,797.333 ZM859.333,815.667 C859.000,816.111 858.667,816.556 858.333,817.000 C858.444,821.444 858.556,825.889 858.667,830.333 C857.628,835.569 851.579,840.791 852.000,843.333 C852.222,843.333 852.444,843.333 852.667,843.333 C863.933,849.994 872.359,832.037 867.667,821.667 C866.496,819.079 863.753,817.399 861.667,815.667 C860.889,815.667 860.111,815.667 859.333,815.667 ZM881.000,836.667 C881.111,836.889 881.222,837.111 881.333,837.333 C881.222,837.111 881.111,836.889 881.000,836.667 ZM524.333,849.000 C524.556,849.111 524.778,849.222 525.000,849.333 C524.778,849.222 524.556,849.111 524.333,849.000 ZM525.333,849.000 C525.555,849.111 525.778,849.222 526.000,849.333 C525.778,849.222 525.555,849.111 525.333,849.000 ZM708.333,852.333 C705.553,854.946 700.946,855.921 697.333,857.667 C681.726,865.207 664.341,870.257 647.333,877.000 C638.632,880.449 631.961,879.652 625.000,884.667 C625.333,884.889 625.667,885.111 626.000,885.333 C631.715,888.185 643.719,883.077 648.667,881.333 C664.086,875.900 677.720,869.200 691.333,862.000 C696.744,859.138 705.100,856.803 709.000,852.333 C708.778,852.333 708.556,852.333 708.333,852.333 ZM829.000,862.333 C829.222,862.333 829.444,862.333 829.667,862.333 C829.444,862.333 829.222,862.333 829.000,862.333 ZM306.333,879.000 C307.000,879.222 307.667,879.444 308.333,879.667 C308.333,879.778 308.333,879.889 308.333,880.000 C306.957,879.721 307.107,879.703 306.333,879.000 ZM402.667,907.667 C423.587,916.381 432.493,921.610 468.000,924.000 C499.385,926.112 529.524,916.953 540.000,912.667 C538.445,912.778 536.889,912.889 535.333,913.000 C519.135,914.503 508.538,915.150 490.667,917.000 C471.938,916.613 452.286,915.688 434.333,912.667 C419.912,910.229 413.999,909.222 402.667,907.667 ZM324.000,561.333 C320.897,562.092 316.167,563.000 315.333,565.333 C314.675,567.178 314.408,568.130 315.587,568.504 C319.059,567.551 322.467,565.664 324.333,564.333 C329.057,560.966 330.260,559.804 324.000,561.333 Z" class="cls-1"/>
</svg>
