<svg xmlns="http://www.w3.org/2000/svg" xmlns:xlink="http://www.w3.org/1999/xlink" preserveAspectRatio="xMidYMid" width="3000" height="3000" viewBox="0 0 3000 3000">
  <defs>
    <style>
      .cls-1 {
        fill: #fff;
        fill-rule: evenodd;
      }
    </style>
  </defs>
  <g>
    <path d="M2659.574,708.136 C2648.730,718.719 2632.800,722.227 2611.785,718.657 C2622.810,741.148 2621.387,759.169 2607.513,772.711 C2595.153,784.775 2580.651,790.211 2564.012,789.024 C2546.444,787.820 2529.981,779.350 2514.619,763.612 C2496.160,744.700 2485.267,726.777 2481.944,709.842 C2478.731,693.024 2482.838,679.038 2494.267,667.884 C2496.598,665.608 2499.682,663.055 2503.524,660.224 C2506.391,690.452 2516.823,714.786 2534.823,733.227 C2553.164,752.018 2567.874,756.013 2578.952,745.199 C2589.796,734.615 2589.083,723.039 2576.817,710.472 C2574.066,707.653 2569.702,703.882 2563.730,699.164 C2557.756,694.443 2553.967,691.260 2552.363,689.617 C2549.268,686.446 2547.331,682.832 2546.557,678.770 C2545.556,673.781 2546.923,669.468 2550.656,665.825 C2559.865,656.836 2569.400,657.388 2579.262,667.491 C2591.184,679.705 2600.427,687.196 2606.998,689.959 C2613.567,692.491 2619.883,690.799 2625.947,684.880 C2633.292,677.711 2631.863,668.898 2621.660,658.446 C2614.551,651.162 2604.542,645.106 2591.633,640.278 C2579.644,635.692 2572.561,632.285 2570.385,630.055 C2566.258,625.827 2564.274,620.995 2564.436,615.563 C2564.711,610.017 2567.359,604.798 2572.374,599.903 C2576.804,595.579 2582.841,592.783 2590.484,591.516 C2589.417,594.621 2589.340,596.642 2590.259,597.583 C2591.404,598.756 2594.801,600.487 2600.449,602.775 C2604.134,604.451 2607.879,606.188 2611.679,607.983 C2625.727,614.913 2637.853,623.601 2648.057,634.057 C2663.190,649.561 2670.632,665.003 2670.389,680.378 C2670.406,691.827 2666.802,701.081 2659.574,708.136 ZM2473.901,594.857 L2433.268,586.357 C2415.253,582.848 2405.513,581.859 2404.048,583.386 C2401.227,586.326 2404.082,591.885 2412.610,600.066 C2423.150,610.178 2433.606,619.310 2443.987,627.460 C2453.199,634.658 2457.624,638.009 2457.294,637.542 C2461.049,641.276 2463.075,646.473 2463.352,653.150 C2463.740,659.619 2462.524,664.326 2459.706,667.263 C2455.984,671.143 2451.465,673.242 2446.154,673.566 C2440.607,673.891 2435.764,672.066 2431.620,668.090 C2430.554,667.067 2426.634,662.851 2419.860,655.453 C2412.854,648.054 2405.858,641.004 2398.871,634.301 C2395.674,631.233 2389.692,625.611 2380.936,617.434 C2372.059,609.139 2366.671,604.087 2364.778,602.270 C2346.657,584.886 2342.389,571.197 2351.978,561.203 C2364.723,547.918 2387.600,544.576 2420.612,551.184 C2431.651,553.425 2446.872,556.173 2466.269,559.426 C2484.382,562.356 2496.488,560.645 2502.579,554.296 C2509.796,546.773 2507.839,537.667 2496.707,526.987 C2489.601,520.170 2478.677,515.786 2463.942,513.842 C2456.513,512.812 2451.985,512.081 2450.356,511.646 C2445.583,510.453 2441.716,508.438 2438.757,505.599 C2434.019,501.053 2431.184,496.301 2430.255,491.346 C2429.315,486.158 2430.712,481.623 2434.434,477.744 C2439.058,472.924 2446.767,468.916 2457.563,465.726 C2456.479,468.751 2456.352,470.661 2457.182,471.457 C2458.839,473.047 2462.109,474.379 2466.996,475.453 C2491.183,480.825 2509.378,489.358 2521.578,501.063 C2536.857,515.720 2544.796,530.677 2545.402,545.932 C2546.190,559.336 2541.680,571.149 2531.867,581.378 C2518.218,595.605 2498.896,600.098 2473.901,594.857 ZM2457.294,637.542 C2457.215,637.463 2457.147,637.375 2457.066,637.298 C2457.196,637.423 2457.261,637.495 2457.294,637.542 ZM2383.066,447.100 C2387.005,464.555 2380.809,483.855 2364.477,505.002 C2350.832,522.670 2334.372,534.044 2315.102,539.127 C2292.575,545.198 2271.311,540.509 2251.309,525.061 C2232.993,510.915 2223.535,493.218 2222.945,471.967 C2222.582,450.688 2230.765,429.217 2247.496,407.553 C2266.716,382.668 2287.855,368.317 2310.914,364.510 C2331.245,361.275 2350.051,366.327 2367.329,379.671 C2378.109,387.997 2386.084,401.568 2391.256,420.384 C2392.518,424.654 2393.737,427.241 2394.906,428.144 C2395.555,428.645 2397.356,428.598 2400.310,427.994 C2398.599,431.821 2396.349,435.540 2393.562,439.149 C2390.672,442.890 2387.173,445.539 2383.066,447.100 ZM2347.298,406.815 C2340.153,401.297 2331.101,399.454 2320.149,401.287 C2306.569,403.566 2294.153,411.989 2282.900,426.559 C2257.005,460.088 2254.126,484.623 2274.262,500.174 C2284.004,507.699 2294.921,509.134 2307.022,504.478 C2318.720,500.340 2330.048,491.178 2341.004,476.992 C2350.065,465.260 2356.807,454.920 2361.223,445.979 C2356.624,441.192 2354.404,435.878 2354.566,430.030 C2355.305,418.866 2352.882,411.128 2347.298,406.815 ZM2176.256,390.923 L2135.083,396.214 C2116.913,398.805 2107.387,401.065 2106.504,402.987 C2104.803,406.690 2109.323,411.006 2120.061,415.939 C2133.334,422.036 2146.206,427.235 2158.685,431.531 C2169.748,435.311 2175.027,437.026 2174.562,436.693 C2179.334,438.990 2182.952,443.236 2185.402,449.453 C2187.890,455.436 2188.284,460.282 2186.585,463.981 C2184.340,468.867 2180.759,472.332 2175.848,474.379 C2170.714,476.504 2165.541,476.367 2160.322,473.970 C2158.980,473.353 2153.894,470.656 2145.070,465.887 C2136.025,461.194 2127.104,456.827 2118.306,452.786 C2114.279,450.936 2106.784,447.585 2095.832,442.730 C2084.726,437.805 2077.980,434.798 2075.596,433.703 C2052.776,423.220 2044.257,411.687 2050.039,399.101 C2057.724,382.372 2078.241,371.715 2111.595,367.135 C2122.758,365.632 2138.039,363.239 2157.431,359.952 C2175.503,356.782 2186.379,351.196 2190.052,343.202 C2194.403,333.728 2189.569,325.767 2175.552,319.328 C2166.603,315.217 2154.846,314.657 2140.288,317.651 C2132.932,319.113 2128.414,319.908 2126.732,320.030 C2121.832,320.468 2117.518,319.832 2113.792,318.120 C2107.825,315.379 2103.589,311.819 2101.087,307.442 C2098.498,302.849 2098.331,298.107 2100.575,293.222 C2103.364,287.153 2109.333,280.839 2118.486,274.286 C2118.454,277.498 2118.960,279.345 2120.006,279.825 C2122.093,280.784 2125.618,280.970 2130.587,280.383 C2155.198,277.527 2175.186,279.624 2190.549,286.682 C2209.788,295.520 2222.192,307.047 2227.766,321.261 C2232.905,333.665 2232.517,346.304 2226.600,359.185 C2218.369,377.100 2201.588,387.680 2176.256,390.923 ZM2174.562,436.693 C2174.462,436.645 2174.368,436.584 2174.267,436.537 C2174.431,436.613 2174.516,436.660 2174.562,436.693 Z" class="cls-1"/>
    <path d="M1409.999,292.000 C1415.878,293.508 1417.256,297.624 1422.000,299.000 C1431.665,298.000 1441.334,297.000 1451.000,296.000 C1450.666,296.666 1450.333,297.333 1450.000,298.000 C1427.882,303.983 1398.917,314.302 1379.000,325.000 C1362.456,333.886 1344.713,332.007 1327.000,339.000 C1283.884,356.022 1234.547,370.655 1192.000,387.000 C1147.974,403.913 1107.303,417.065 1069.999,439.000 C1064.838,442.035 1058.960,440.537 1054.000,444.000 C1032.172,459.237 1009.730,475.803 987.999,491.000 C974.947,500.128 958.992,502.707 946.000,512.000 C931.797,522.159 914.364,539.597 900.999,544.000 C885.762,549.020 786.978,513.523 764.000,509.000 C767.333,505.667 770.667,502.333 773.999,499.000 C778.049,494.760 783.426,498.806 788.999,495.000 C817.111,475.803 844.551,459.764 876.999,443.000 C907.430,427.278 942.244,409.139 972.000,391.000 C974.666,391.000 977.333,391.000 980.000,391.000 C997.746,383.645 1019.357,373.403 1037.000,365.000 C1083.361,342.918 1142.400,340.665 1192.000,322.000 C1210.114,315.183 1216.067,326.891 1226.999,329.000 C1227.718,329.139 1255.309,326.792 1258.000,326.000 C1268.836,322.808 1273.934,309.558 1283.000,305.000 C1294.126,299.406 1311.254,300.479 1321.999,296.000 C1334.292,290.876 1345.228,300.483 1350.000,302.000 C1369.998,298.667 1390.001,295.333 1409.999,292.000 ZM1566.999,584.000 C1593.951,582.613 1627.061,597.888 1666.000,602.000 C1666.000,600.333 1666.000,598.666 1666.000,597.000 C1658.762,518.633 1658.113,479.572 1654.999,423.000 C1653.680,399.032 1652.201,365.660 1655.999,351.000 C1701.404,343.605 1810.489,363.568 1860.999,380.000 C1885.245,387.887 1914.732,392.290 1935.999,400.000 C2077.109,451.153 2243.253,544.248 2328.999,634.000 C2328.983,633.899 2359.291,657.299 2368.000,666.000 C2401.365,699.332 2431.897,728.777 2469.999,762.000 C2548.791,830.701 2644.477,881.521 2731.000,945.000 C2758.330,965.664 2785.669,986.335 2813.000,1007.000 C2808.954,1022.284 2803.575,1040.765 2795.999,1069.000 C2776.145,1119.579 2757.279,1172.614 2738.000,1223.000 C2725.228,1256.378 2704.256,1291.228 2697.999,1328.000 C2701.332,1341.999 2704.666,1356.001 2708.000,1370.000 C2708.438,1385.258 2732.978,1481.582 2741.000,1503.000 C2733.817,1520.738 2715.932,1532.583 2709.000,1552.000 C2705.127,1639.077 2671.865,1791.792 2608.999,1936.000 C2589.001,1967.663 2568.998,1999.336 2549.000,2031.000 C2537.893,2046.990 2523.761,2061.764 2517.000,2082.000 C2517.333,2082.000 2517.666,2082.000 2518.000,2082.000 C2518.000,2081.333 2518.000,2080.666 2518.000,2080.000 C2558.048,2040.208 2597.937,1971.260 2628.000,1921.000 C2642.381,1896.955 2653.052,1861.957 2673.000,1843.000 C2673.333,1843.000 2673.666,1843.000 2674.000,1843.000 C2674.000,1843.333 2674.000,1843.667 2674.000,1844.000 C2646.715,1914.339 2612.034,1983.670 2570.000,2040.000 C2550.827,2065.694 2526.157,2087.339 2504.999,2111.000 C2464.964,2155.772 2425.147,2200.430 2378.000,2238.000 C2347.859,2262.017 2318.451,2286.855 2287.000,2310.000 C2271.507,2321.400 2258.644,2330.963 2231.999,2352.000 C2191.803,2377.356 2176.459,2383.045 2127.999,2410.000 C2051.775,2452.333 1990.465,2477.648 1916.000,2502.000 C1842.544,2530.890 1751.816,2548.401 1668.000,2565.000 C1613.579,2575.777 1550.147,2577.344 1489.000,2579.000 C1465.729,2579.630 1423.943,2571.364 1411.999,2564.000 C1439.503,2561.079 1489.301,2560.545 1526.000,2552.000 C1538.332,2550.667 1550.667,2549.333 1563.000,2548.000 C1518.004,2549.000 1472.995,2550.000 1428.000,2551.000 C1409.002,2551.000 1389.998,2551.000 1371.000,2551.000 C1269.528,2533.570 1162.781,2514.386 1083.000,2472.000 C1058.303,2458.879 959.821,2421.075 952.999,2401.000 C933.719,2385.828 941.186,2389.057 924.788,2370.778 C941.136,2379.546 946.836,2381.954 965.000,2391.000 C999.663,2407.998 1020.336,2417.002 1054.999,2434.000 C1116.337,2459.316 1158.011,2467.809 1221.000,2489.000 C1245.331,2491.333 1297.669,2500.667 1321.999,2503.000 C1398.352,2510.195 1432.237,2515.125 1513.999,2508.718 C1535.664,2507.333 1584.335,2497.666 1605.000,2496.000 C1657.164,2486.660 1712.129,2481.302 1760.000,2469.000 C1777.482,2464.507 1794.744,2467.138 1813.000,2464.000 C1840.327,2459.303 1885.710,2445.949 1909.000,2434.000 C1908.500,2433.167 1906.999,2433.000 1905.000,2430.000 C1875.284,2440.449 1840.208,2454.085 1805.000,2452.000 C1805.000,2451.667 1805.000,2451.333 1805.000,2451.000 C1829.545,2445.175 1864.320,2435.364 1881.000,2420.000 C1878.137,2418.051 1869.025,2418.487 1866.000,2414.000 C1844.335,2421.999 1829.664,2427.001 1808.000,2435.000 C1775.003,2441.333 1747.996,2450.667 1714.999,2457.000 C1695.606,2462.537 1668.737,2467.138 1646.999,2472.000 C1509.597,2502.734 1333.840,2496.274 1210.999,2457.000 C1179.415,2446.902 1088.393,2418.261 1073.000,2398.000 C1073.666,2398.000 1074.333,2398.000 1075.000,2398.000 C1090.721,2393.744 1158.541,2421.825 1176.000,2428.000 C1227.933,2446.369 1283.943,2451.994 1348.000,2457.000 C1371.396,2458.828 1389.025,2460.661 1424.999,2460.000 C1446.712,2459.601 1470.981,2460.792 1507.999,2458.000 C1602.931,2444.531 1624.900,2439.044 1691.999,2418.000 C1711.942,2411.746 1734.733,2405.809 1751.999,2396.000 C1744.334,2395.000 1740.665,2392.000 1733.000,2391.000 C1697.498,2401.478 1682.693,2406.064 1653.000,2412.000 C1654.392,2410.077 1653.101,2411.401 1654.999,2410.000 C1658.764,2401.066 1703.604,2395.713 1718.000,2384.000 C1718.000,2383.667 1718.000,2383.333 1718.000,2383.000 C1696.272,2374.335 1652.606,2347.032 1636.000,2332.000 C1625.669,2322.649 1611.739,2309.765 1605.000,2305.000 C1564.490,2301.244 1525.934,2298.337 1490.000,2297.000 C1440.671,2293.834 1403.328,2288.666 1357.000,2284.000 C1357.333,2283.333 1357.666,2282.666 1357.999,2282.000 C1433.083,2281.750 1508.143,2288.786 1586.999,2289.000 C1586.333,2288.000 1580.666,2283.000 1579.999,2282.000 C1534.049,2279.644 1499.145,2278.356 1457.000,2276.000 C1417.166,2273.773 1389.648,2274.404 1356.000,2270.000 C1308.338,2263.761 1258.861,2256.082 1215.000,2245.000 C1171.604,2234.035 1141.287,2241.041 1118.000,2208.000 C1123.085,2189.419 1196.407,2170.704 1216.999,2162.000 C1272.897,2138.374 1312.864,2115.593 1357.000,2082.000 C1368.531,2073.223 1382.344,2067.406 1390.000,2055.000 C1392.999,2041.668 1396.000,2028.332 1399.000,2015.000 C1417.625,2007.444 1437.065,2006.180 1455.999,2000.000 C1465.999,1987.334 1476.001,1974.665 1485.999,1962.000 C1504.311,1937.457 1520.420,1911.351 1536.999,1885.000 C1547.999,1868.668 1559.000,1852.332 1570.000,1836.000 C1540.726,1794.956 1472.847,1789.529 1461.000,1848.000 C1471.043,1849.922 1480.459,1854.091 1489.000,1849.000 C1491.034,1842.867 1492.399,1839.385 1490.000,1833.000 C1505.629,1829.303 1508.350,1834.300 1519.000,1842.000 C1520.857,1839.715 1521.684,1841.882 1520.999,1836.000 C1521.666,1836.333 1522.333,1836.667 1522.999,1837.000 C1523.333,1836.333 1523.666,1835.666 1524.000,1835.000 C1538.480,1843.198 1543.453,1869.869 1533.000,1885.000 C1509.667,1918.774 1448.716,1926.313 1421.000,1892.000 C1391.074,1854.951 1381.834,1818.593 1408.000,1774.000 C1410.999,1768.000 1414.000,1761.999 1416.999,1756.000 C1437.188,1735.564 1466.047,1733.672 1496.000,1722.000 C1495.667,1721.333 1495.333,1720.667 1495.000,1720.000 C1468.894,1714.533 1454.346,1724.381 1436.000,1729.000 C1436.333,1728.333 1436.667,1727.666 1437.000,1727.000 C1446.998,1720.667 1457.000,1714.333 1467.000,1708.000 C1522.073,1694.414 1598.738,1748.344 1612.000,1777.000 C1612.999,1776.333 1614.000,1775.667 1615.000,1775.000 C1617.111,1763.784 1652.357,1724.486 1661.000,1711.000 C1669.681,1712.130 1673.362,1716.055 1681.000,1719.000 C1684.240,1730.933 1699.902,1825.986 1703.000,1829.000 C1710.332,1832.666 1717.667,1836.334 1725.000,1840.000 C1738.332,1848.701 1750.467,1862.467 1758.999,1876.000 C1791.501,1927.548 1763.253,2007.795 1739.000,2044.000 C1740.666,2044.000 1742.333,2044.000 1743.999,2044.000 C1766.751,2030.920 1773.616,1992.209 1787.999,1967.000 C1800.720,1944.706 1845.214,1884.340 1872.000,1859.000 C1867.000,1867.666 1861.999,1876.334 1857.000,1885.000 C1838.455,1926.917 1813.987,1967.389 1801.999,2013.000 C1802.666,2012.333 1803.333,2011.667 1803.999,2011.000 C1801.601,2026.029 1795.115,2043.114 1800.000,2059.000 C1811.532,2058.844 1818.237,2054.863 1827.000,2052.000 C1823.999,1997.351 1847.182,1933.101 1872.000,1902.000 C1893.201,1875.431 1917.865,1855.989 1934.000,1823.000 C1940.593,1809.519 1955.383,1778.742 1949.000,1757.000 C1942.944,1736.372 1920.223,1707.907 1896.000,1701.000 C1899.108,1713.998 1906.296,1724.686 1909.000,1740.000 C1918.595,1794.347 1866.382,1862.702 1818.999,1854.000 C1818.999,1853.667 1818.999,1853.333 1818.999,1853.000 C1826.666,1849.334 1834.334,1845.666 1842.000,1842.000 C1842.000,1840.667 1842.000,1839.333 1842.000,1838.000 C1841.333,1838.333 1840.666,1838.667 1839.999,1839.000 C1830.334,1841.666 1820.666,1844.334 1810.999,1847.000 C1818.666,1842.667 1826.334,1838.333 1834.000,1834.000 C1860.815,1813.057 1884.976,1769.293 1858.000,1731.000 C1838.473,1703.283 1763.201,1684.003 1777.000,1750.000 C1779.000,1750.667 1781.000,1751.333 1783.000,1752.000 C1784.000,1749.667 1785.000,1747.333 1786.000,1745.000 C1790.993,1743.652 1795.341,1742.883 1801.000,1744.000 C1866.434,1796.206 1756.597,1842.705 1726.000,1800.000 C1726.000,1799.667 1726.000,1799.333 1726.000,1799.000 C1734.412,1800.798 1746.651,1808.024 1757.000,1804.000 C1756.333,1803.667 1755.666,1803.333 1755.000,1803.000 C1745.076,1788.336 1730.045,1784.533 1725.000,1763.000 C1717.596,1731.405 1725.715,1701.454 1739.000,1685.000 C1749.983,1665.472 1739.535,1650.972 1734.000,1641.000 C1718.454,1612.993 1704.633,1598.501 1675.000,1592.000 C1649.270,1586.355 1601.509,1604.436 1613.000,1628.000 C1615.316,1633.356 1618.634,1635.612 1625.999,1636.000 C1643.007,1628.940 1645.994,1630.657 1659.000,1636.000 C1666.639,1639.138 1671.636,1634.725 1677.999,1637.000 C1677.666,1638.000 1677.333,1639.000 1676.999,1640.000 C1674.333,1643.333 1671.666,1646.667 1668.999,1650.000 C1676.435,1651.122 1671.158,1652.529 1679.000,1652.000 C1681.007,1647.984 1680.105,1650.823 1683.000,1649.000 C1683.333,1649.333 1683.666,1649.667 1683.999,1650.000 C1679.398,1713.030 1580.476,1720.433 1563.000,1660.000 C1539.927,1580.216 1619.856,1522.318 1690.999,1546.000 C1705.207,1536.820 1710.947,1519.413 1727.999,1512.000 C1736.194,1508.438 1744.499,1510.487 1755.000,1508.000 C1821.005,1492.368 1861.773,1522.148 1901.000,1560.000 C1955.400,1543.809 2005.883,1608.434 2022.000,1632.000 C2027.525,1640.079 2030.390,1655.240 2038.999,1660.000 C2028.981,1616.815 2006.812,1567.411 1977.000,1540.000 C1955.857,1520.560 1933.477,1499.095 1913.033,1480.327 C1889.814,1459.012 1871.404,1441.711 1854.999,1430.000 C1886.108,1471.999 1922.531,1493.437 1935.999,1520.000 C1926.667,1511.334 1917.332,1502.666 1908.000,1494.000 C1877.698,1467.639 1851.259,1438.164 1822.000,1411.000 C1811.334,1403.334 1800.665,1395.666 1790.000,1388.000 C1749.537,1350.819 1708.860,1313.697 1668.999,1276.000 C1652.457,1260.355 1636.348,1252.235 1622.000,1238.000 C1614.461,1230.521 1618.599,1212.986 1615.000,1202.000 C1590.397,1199.227 1565.124,1183.724 1543.999,1175.000 C1493.512,1154.150 1444.989,1134.624 1395.999,1114.000 C1374.497,1104.947 1332.340,1092.084 1318.000,1077.000 C1303.817,1062.081 1312.325,1024.586 1320.999,1009.000 C1321.333,1009.000 1321.666,1009.000 1321.999,1009.000 C1392.326,1036.330 1462.673,1063.669 1533.000,1091.000 C1557.895,1101.304 1582.651,1113.894 1610.999,1121.000 C1594.333,1112.314 1588.018,1109.581 1577.000,1105.000 C1569.372,1101.297 1562.874,1099.558 1566.999,1101.000 C1547.686,1093.560 1518.889,1080.429 1514.999,1077.000 C1571.994,1098.998 1629.005,1121.002 1686.000,1143.000 C1693.999,1142.667 1702.000,1142.333 1710.000,1142.000 C1735.330,1144.333 1760.669,1146.667 1786.000,1149.000 C1786.537,1146.223 1785.210,1146.530 1787.999,1147.000 C1781.624,1134.051 1769.327,1125.921 1761.000,1115.000 C1732.182,1077.209 1704.106,1038.999 1673.000,1003.000 C1663.849,992.410 1650.954,977.335 1640.999,962.000 C1579.542,867.317 1568.170,738.095 1566.999,584.000 ZM1343.999,365.000 C1347.332,365.333 1350.666,365.667 1354.000,366.000 C1353.333,366.000 1352.666,366.000 1351.999,366.000 C1334.637,383.979 1268.609,402.438 1242.000,415.000 C1146.818,459.933 1048.222,506.415 972.999,568.000 C969.760,566.818 929.092,551.912 927.000,550.000 C927.333,549.333 927.666,548.667 928.000,548.000 C939.332,540.334 950.667,532.666 962.000,525.000 C991.663,507.668 1021.336,490.332 1051.000,473.000 C1065.553,465.294 1081.207,463.585 1097.000,456.000 C1135.082,437.708 1178.317,419.939 1218.999,404.000 C1249.663,394.001 1280.336,383.999 1311.000,374.000 C1321.359,371.046 1338.582,372.738 1343.999,365.000 ZM1662.999,365.000 C1662.999,365.666 1662.999,366.333 1662.999,367.000 C1662.999,366.333 1662.999,365.666 1662.999,365.000 ZM2304.999,1079.000 C2321.320,1080.477 2371.628,1108.434 2410.291,1122.730 C2419.571,1122.422 2422.482,1120.900 2431.999,1117.000 C2409.037,1064.944 2357.627,988.748 2341.000,959.000 C2330.603,961.231 2315.203,1026.151 2305.999,1038.000 C2280.053,1071.404 2230.854,1070.750 2180.999,1081.000 C2168.668,1081.333 2156.332,1081.667 2143.999,1082.000 C2052.584,1095.988 1986.118,1060.522 1925.000,1034.000 C1894.505,1020.767 1867.550,1007.007 1840.999,991.000 C1833.097,986.235 1825.878,983.628 1820.000,977.000 C1818.666,976.333 1817.333,975.667 1816.000,975.000 C1820.332,976.333 1824.667,977.667 1829.000,979.000 C1823.667,975.334 1818.333,971.666 1813.000,968.000 C1837.664,976.332 1862.335,984.667 1887.000,993.000 C1918.330,1002.332 1949.670,1011.668 1980.999,1021.000 C2001.731,1025.795 2018.878,1021.064 2042.000,1025.000 C2120.383,1038.342 2237.344,1023.931 2261.999,969.000 C2263.666,960.334 2268.333,947.666 2269.999,939.000 C2279.026,907.504 2286.675,894.556 2272.000,872.000 C2265.223,861.584 2240.460,822.449 2225.999,803.000 C2245.401,818.339 2265.303,838.558 2288.000,870.000 C2288.333,870.000 2288.666,870.000 2289.000,870.000 C2289.162,859.823 2288.979,853.626 2290.000,848.000 C2271.034,816.913 2198.810,732.287 2179.000,704.000 C2179.333,703.667 2179.666,703.333 2179.999,703.000 C2201.022,718.921 2229.195,746.869 2250.000,768.000 C2262.998,783.332 2276.001,798.668 2289.000,814.000 C2289.333,814.000 2289.666,814.000 2290.000,814.000 C2290.000,811.334 2290.000,808.666 2290.000,806.000 C2284.281,790.520 2272.008,781.091 2262.999,769.000 C2226.899,720.544 2193.254,675.887 2149.999,635.000 C2133.664,619.558 2117.486,594.239 2096.000,585.000 C2078.294,669.563 1970.509,633.041 1934.999,591.000 C1921.889,575.478 1914.294,533.681 1923.000,513.000 C1928.503,499.925 1938.566,488.339 1942.000,473.000 C1924.668,464.334 1907.331,455.666 1890.000,447.000 C1857.336,433.668 1824.663,420.332 1792.000,407.000 C1777.826,401.096 1735.455,386.953 1731.000,398.000 C1727.962,398.880 1730.735,399.436 1732.000,401.000 C1736.740,410.652 1748.383,415.983 1756.000,423.000 C1771.419,437.205 1785.585,454.787 1800.000,470.000 C1840.996,521.328 1882.004,572.672 1923.000,624.000 C1938.472,645.015 1980.488,676.746 1976.000,710.000 C1890.643,704.186 1794.046,692.043 1703.000,669.000 C1673.285,661.479 1648.367,651.911 1623.000,645.000 C1618.542,643.786 1619.409,643.584 1617.999,645.000 C1615.001,653.621 1623.066,697.625 1624.999,708.000 C1642.549,802.145 1648.006,833.640 1661.000,881.000 C1671.526,906.242 1684.167,916.128 1698.999,935.000 C1742.703,990.606 1773.720,1022.739 1818.999,1076.000 C1843.609,1104.947 1874.237,1128.181 1901.000,1155.000 C1922.857,1176.904 1938.735,1206.701 1956.000,1233.000 C1988.526,1282.546 2027.052,1337.904 2027.000,1415.000 C2039.909,1404.642 2049.165,1386.384 2058.000,1372.000 C2084.579,1328.723 2118.295,1287.482 2138.000,1233.000 C2140.999,1220.334 2144.000,1207.665 2147.000,1195.000 C2150.666,1193.000 2154.333,1191.000 2157.999,1189.000 C2160.429,1199.084 2165.360,1216.222 2171.999,1223.000 C2173.337,1218.974 2172.814,1220.745 2175.000,1220.000 C2176.333,1220.000 2177.666,1220.000 2179.000,1220.000 C2191.665,1262.662 2204.334,1305.337 2216.999,1348.000 C2224.999,1392.329 2233.000,1436.671 2241.000,1481.000 C2246.356,1505.559 2259.342,1563.070 2243.000,1581.000 C2240.314,1584.855 2223.054,1593.216 2215.000,1590.000 C2181.145,1576.484 2116.181,1575.864 2084.999,1577.000 C2135.408,1701.550 2085.746,1928.806 2034.000,1976.000 C2034.666,1974.000 2035.333,1972.000 2036.000,1970.000 C2035.638,1953.725 2048.339,1939.213 2056.000,1922.000 C2062.800,1906.718 2064.440,1882.854 2069.999,1870.000 C2068.666,1870.333 2067.333,1870.667 2066.000,1871.000 C2033.334,1975.024 1958.780,2033.172 1872.000,2083.000 C1864.000,2087.884 1846.703,2097.183 1822.000,2108.000 C1782.364,2125.356 1713.255,2131.437 1679.000,2127.000 C1598.750,2116.605 1524.513,2093.188 1472.000,2055.000 C1465.108,2049.988 1434.668,2035.418 1429.000,2051.000 C1425.076,2061.786 1440.208,2072.923 1444.000,2078.000 C1464.100,2104.913 1486.533,2128.540 1510.000,2152.000 C1590.997,2232.973 1708.060,2345.752 1886.000,2314.000 C2079.944,2279.392 2219.073,2184.243 2341.000,2077.000 C2363.410,2057.288 2377.993,2031.001 2399.000,2010.000 C2393.411,2034.221 2367.962,2056.916 2354.000,2075.000 C2286.294,2162.695 2185.632,2224.600 2108.000,2263.000 C2108.999,2263.667 2111.666,2262.667 2120.999,2260.000 C2146.520,2248.680 2188.732,2234.027 2283.999,2174.000 C2347.047,2130.275 2373.044,2103.305 2409.999,2065.000 C2448.558,2025.034 2495.686,1942.631 2523.000,1881.000 C2530.992,1862.966 2531.811,1839.608 2541.000,1821.000 C2581.794,1738.381 2596.132,1634.385 2595.999,1512.000 C2591.354,1509.424 2589.451,1507.053 2583.000,1506.000 C2583.565,1579.000 2572.385,1654.692 2555.000,1734.000 C2548.518,1763.566 2545.655,1795.960 2526.000,1811.000 C2530.682,1734.186 2551.739,1659.257 2558.999,1579.000 C2562.534,1539.926 2567.366,1498.504 2565.999,1487.000 C2548.414,1474.064 2522.659,1461.999 2508.000,1453.000 C2460.689,1423.957 2410.755,1390.659 2358.999,1368.000 C2346.443,1362.502 2287.382,1342.383 2282.999,1334.000 C2311.439,1309.559 2332.000,1299.656 2340.000,1287.000 C2373.053,1234.704 2308.069,1125.433 2304.999,1079.000 ZM610.000,417.000 C627.809,438.607 626.742,435.878 624.999,468.000 C627.698,469.600 626.377,468.339 628.000,471.000 C628.333,470.333 628.666,469.666 629.000,469.000 C638.465,464.005 638.584,455.347 646.000,449.000 C647.333,449.666 648.666,450.333 650.000,451.000 C650.426,459.997 652.022,470.862 654.999,476.000 C656.333,475.333 657.666,474.667 659.000,474.000 C660.626,465.298 660.407,462.438 665.000,456.000 C666.666,456.333 668.333,456.667 669.999,457.000 C674.124,476.416 685.461,484.389 697.000,496.000 C702.964,502.001 703.375,511.438 709.000,516.000 C735.987,537.886 810.260,542.478 852.000,555.000 C906.387,571.316 966.491,587.985 1020.000,607.000 C1064.548,622.831 1110.329,632.384 1146.000,657.000 C1208.660,676.665 1271.339,696.335 1334.000,716.000 C1315.006,696.689 1237.681,686.012 1226.999,671.000 C1253.330,678.332 1279.669,685.667 1305.999,693.000 C1353.596,708.787 1384.594,715.871 1431.999,727.000 C1443.500,730.407 1449.517,730.718 1461.999,734.000 C1467.277,732.067 1474.611,729.031 1480.000,727.000 C1494.331,742.332 1508.668,757.668 1522.999,773.000 C1530.700,779.029 1541.934,783.441 1547.000,792.000 C1553.838,806.043 1543.646,827.830 1539.000,838.000 C1523.117,872.762 1529.454,954.735 1529.999,1004.000 C1530.185,1020.801 1532.297,1040.147 1532.000,1058.000 C1528.667,1060.000 1525.333,1064.000 1521.999,1066.000 C1504.206,1059.517 1496.813,1057.608 1483.000,1052.000 C1465.741,1045.682 1460.788,1042.621 1454.999,1042.000 C1451.530,1030.934 1453.299,1036.679 1448.999,1014.000 C1447.874,1018.904 1447.518,1018.754 1444.000,1021.000 C1442.503,991.450 1442.331,974.775 1440.999,945.000 C1439.127,903.115 1444.812,856.363 1431.000,828.000 C1397.978,827.568 1371.264,804.313 1344.999,794.000 C1306.337,782.334 1267.662,770.665 1229.000,759.000 C1131.337,733.584 1037.740,712.921 944.999,685.000 C915.720,676.185 885.903,672.636 860.000,661.000 C848.808,655.973 839.550,659.591 828.000,655.000 C777.957,635.109 712.510,627.731 669.000,603.000 C666.082,634.762 670.000,674.163 674.000,712.000 C673.333,729.331 672.666,746.668 672.000,764.000 C672.000,818.994 672.000,874.005 672.000,929.000 C671.996,967.170 671.491,1006.686 669.999,1054.000 C670.666,1077.998 671.333,1102.002 672.000,1126.000 C672.333,1160.996 672.666,1196.003 673.000,1231.000 C672.666,1276.995 672.333,1323.004 672.000,1369.000 C674.000,1432.604 670.481,1503.225 680.000,1563.000 C679.000,1582.665 677.999,1602.335 676.999,1622.000 C677.999,1637.998 679.000,1654.002 680.000,1670.000 C679.666,1682.999 679.333,1696.001 678.999,1709.000 C683.376,1710.468 683.617,1709.940 687.000,1714.000 C741.583,1698.050 797.744,1694.932 854.000,1680.000 C984.620,1645.328 1117.841,1621.059 1239.999,1579.000 C1305.079,1556.593 1378.938,1543.610 1429.000,1506.000 C1431.999,1507.666 1435.000,1509.333 1438.000,1511.000 C1447.403,1495.951 1440.000,1442.693 1439.999,1413.000 C1441.666,1388.002 1443.333,1362.997 1445.000,1338.000 C1445.000,1305.670 1445.000,1273.330 1445.000,1241.000 C1444.666,1213.336 1444.333,1185.664 1444.000,1158.000 C1447.079,1160.538 1446.356,1161.083 1450.000,1161.000 C1450.333,1157.667 1450.666,1154.333 1451.000,1151.000 C1454.666,1154.333 1457.850,1157.075 1468.999,1164.000 C1490.448,1173.639 1505.649,1178.777 1529.999,1192.000 C1530.818,1204.019 1532.061,1233.640 1532.000,1245.000 C1531.755,1289.851 1530.005,1334.409 1529.999,1380.000 C1530.333,1394.665 1530.666,1409.335 1531.000,1424.000 C1531.666,1422.333 1532.333,1420.666 1533.000,1419.000 C1533.333,1419.000 1533.666,1419.000 1534.000,1419.000 C1536.624,1445.146 1536.481,1578.077 1527.000,1591.000 C1304.357,1659.917 1070.576,1701.367 854.000,1773.000 C790.339,1789.665 726.660,1806.335 662.999,1823.000 C654.333,1819.405 617.800,1843.191 604.999,1838.000 C590.639,1828.913 577.426,1819.314 561.000,1810.000 C555.773,1756.519 567.215,1697.714 577.000,1651.000 C577.333,1628.669 577.666,1606.331 578.000,1584.000 C581.015,1535.333 573.562,1496.034 580.999,1485.000 C576.741,1472.723 578.278,1467.446 581.000,1460.000 C583.000,1459.000 583.000,1431.000 585.000,1430.000 C585.333,1396.337 585.667,1362.663 586.000,1329.000 C583.788,1297.112 585.435,1297.525 585.632,1248.434 C585.788,1209.430 585.858,1197.994 585.849,1176.518 C585.808,1074.868 585.542,1039.914 586.000,997.000 C587.666,931.673 587.567,865.859 587.000,805.000 C589.116,787.083 588.999,780.332 589.999,768.000 C589.999,750.335 589.999,732.665 589.999,715.000 C590.227,691.240 589.675,686.917 587.999,668.000 C587.026,657.569 585.097,650.757 585.000,644.000 C583.395,625.759 583.908,610.463 574.999,564.000 C569.631,535.999 547.853,511.340 535.000,488.000 C541.999,489.666 549.000,491.333 556.000,493.000 C557.324,482.797 561.166,472.737 565.000,465.000 C579.926,444.372 586.400,436.114 610.000,417.000 ZM1706.999,463.000 C1715.332,513.661 1723.667,564.338 1732.000,615.000 C1769.802,624.942 1804.792,634.105 1842.000,642.000 C1850.739,643.854 1877.411,652.351 1882.000,649.000 C1846.244,609.075 1806.203,573.344 1770.000,534.000 C1749.002,510.336 1727.997,486.664 1706.999,463.000 ZM2003.999,488.000 C2020.200,510.750 2049.247,540.887 2015.000,572.000 C2006.180,580.012 1990.582,579.312 1980.999,587.000 C1994.328,606.729 2023.613,609.675 2042.000,592.000 C2064.552,570.320 2059.006,537.573 2043.000,514.000 C2034.092,500.881 2026.298,487.597 2003.999,488.000 ZM646.000,570.000 C644.950,597.302 647.266,605.097 647.000,636.000 C646.711,669.528 645.774,688.475 647.999,733.000 C648.999,733.333 650.000,733.667 651.000,734.000 C652.719,696.584 657.378,591.178 646.000,570.000 ZM691.000,587.000 C691.000,589.000 691.000,591.000 691.000,593.000 C713.868,598.320 727.573,601.794 770.000,617.000 C836.993,634.665 904.006,655.335 971.000,673.000 C990.055,678.894 1064.011,707.088 1079.000,703.000 C1065.216,693.453 1048.625,691.114 1031.000,685.000 C1000.754,674.509 966.382,661.707 935.000,653.000 C901.684,643.757 882.611,639.264 861.999,634.000 C830.450,625.942 825.037,622.053 808.000,617.000 C755.686,602.142 748.209,600.103 691.000,587.000 ZM2309.000,617.000 C2309.666,617.666 2310.333,618.333 2311.000,619.000 C2310.333,618.333 2309.666,617.666 2309.000,617.000 ZM565.999,634.000 C567.953,635.617 568.187,659.993 565.999,672.000 C561.381,697.360 554.877,722.040 544.999,745.000 C518.100,807.529 491.413,866.693 462.000,927.000 C444.410,963.065 415.748,1004.576 414.000,1053.000 C431.721,1037.447 439.202,1004.084 450.000,982.000 C474.822,931.227 502.955,878.987 536.000,836.000 C542.211,827.919 545.628,815.865 554.000,810.000 C543.667,833.664 533.332,857.336 522.999,881.000 C499.830,929.946 478.819,978.033 455.999,1025.000 C442.150,1053.506 432.762,1085.053 421.000,1113.000 C417.415,1121.517 418.639,1121.716 414.000,1134.000 C410.609,1134.105 412.333,1136.000 407.000,1136.000 C400.000,1156.998 396.999,1167.002 389.999,1188.000 C375.668,1240.995 361.331,1294.005 347.000,1347.000 C339.000,1392.329 330.999,1437.671 322.999,1483.000 C319.529,1502.069 327.999,1508.081 325.000,1527.000 C308.580,1630.558 311.622,1769.316 343.999,1875.000 C355.651,1913.032 365.708,1950.569 378.000,1986.000 C382.394,1998.666 382.969,2013.986 391.000,2023.000 C381.200,1954.380 355.766,1889.105 343.000,1820.000 C334.116,1771.914 342.309,1721.763 334.000,1672.000 C334.333,1661.001 334.666,1649.999 335.000,1639.000 C329.712,1601.039 340.528,1406.592 365.000,1317.000 C365.333,1317.000 375.032,1292.648 372.000,1299.000 C372.666,1299.333 348.333,1477.667 349.000,1478.000 C338.357,1562.746 342.759,1706.311 363.000,1786.000 C369.874,1813.065 369.072,1845.631 380.999,1868.000 C382.666,1877.999 384.333,1888.001 386.000,1898.000 C400.583,1939.201 410.387,1990.084 430.000,2029.000 C468.973,2106.334 499.158,2189.716 543.000,2262.000 C588.747,2337.427 647.332,2400.630 707.999,2458.000 C750.858,2498.528 795.020,2537.547 845.000,2571.000 C860.755,2581.545 876.852,2605.939 896.000,2611.000 C896.000,2611.333 896.000,2611.667 896.000,2612.000 C864.779,2609.170 793.335,2559.026 761.000,2539.000 C669.372,2482.254 594.141,2410.583 512.000,2345.000 C480.010,2319.459 426.736,2272.349 410.000,2234.000 C410.985,2232.455 410.762,2230.592 410.999,2228.000 C401.775,2210.312 391.612,2207.257 379.000,2187.000 C360.461,2150.851 312.925,2068.549 306.999,2055.000 C287.212,2009.756 276.200,1961.292 262.000,1911.000 C255.334,1883.003 248.666,1854.997 241.999,1827.000 C240.433,1928.457 272.578,2005.203 282.000,2098.000 C281.667,2098.000 281.333,2098.000 281.000,2098.000 C281.000,2097.333 281.000,2096.667 281.000,2096.000 C273.667,2078.335 266.332,2060.665 259.000,2043.000 C247.734,2015.381 235.172,1984.722 226.999,1954.000 C221.333,1918.670 215.665,1883.330 210.000,1848.000 C208.333,1821.003 206.666,1793.997 204.999,1767.000 C203.000,1743.002 201.000,1718.998 199.000,1695.000 C198.231,1659.868 197.345,1617.701 199.000,1577.000 C199.000,1565.001 199.000,1552.999 199.000,1541.000 C201.000,1505.337 203.000,1469.663 204.999,1434.000 C213.699,1405.402 210.016,1371.648 217.999,1342.000 C234.178,1281.923 241.117,1217.477 261.000,1160.000 C281.572,1100.530 304.898,1045.844 328.000,988.000 C332.999,977.668 338.000,967.332 343.000,957.000 C343.666,957.666 344.333,958.333 344.999,959.000 C328.668,1015.328 312.331,1071.672 296.000,1128.000 C289.667,1164.330 283.332,1200.670 276.999,1237.000 C261.705,1296.163 244.265,1374.075 249.999,1437.000 C250.333,1437.000 250.666,1437.000 251.000,1437.000 C254.660,1387.747 268.534,1327.775 280.000,1280.000 C290.164,1237.649 292.277,1196.480 304.000,1152.000 C332.470,1043.972 376.741,951.524 424.000,863.000 C441.998,827.004 460.001,790.996 477.999,755.000 C507.330,714.671 536.669,674.329 565.999,634.000 ZM732.000,688.000 C746.020,698.335 762.887,717.778 788.999,727.000 C819.516,737.777 954.169,777.626 920.000,860.000 C914.085,874.258 902.707,880.807 892.999,891.000 C892.999,891.667 892.999,892.333 892.999,893.000 C947.833,931.110 958.227,1036.713 876.999,1055.000 C844.500,1062.316 782.396,1043.694 765.999,1052.000 C761.509,1058.067 759.151,1064.754 754.000,1070.000 C743.099,1069.628 737.165,1064.614 730.999,1060.000 C728.666,1061.666 726.333,1063.333 724.000,1065.000 C712.077,1051.272 721.676,1030.045 722.999,1011.000 C726.447,961.368 724.372,926.777 725.000,879.000 C723.859,834.303 725.084,773.218 724.000,764.000 C724.511,754.619 706.926,701.103 713.000,690.000 C713.333,689.667 717.666,691.333 718.000,691.000 C722.139,691.945 731.221,689.324 732.000,688.000 ZM2399.000,697.000 C2401.698,698.600 2400.377,697.339 2401.999,700.000 C2401.000,699.000 2400.000,698.000 2399.000,697.000 ZM2401.999,700.000 C2404.698,701.600 2403.377,700.339 2405.000,703.000 C2404.000,702.000 2402.999,701.000 2401.999,700.000 ZM2177.000,701.000 C2178.922,702.392 2177.598,701.101 2179.000,703.000 C2178.333,702.333 2177.666,701.667 2177.000,701.000 ZM2420.000,718.000 C2420.666,718.666 2421.333,719.333 2422.000,720.000 C2421.333,719.333 2420.666,718.666 2420.000,718.000 ZM784.000,758.000 C781.000,759.666 777.999,761.333 774.999,763.000 C775.800,786.448 770.208,846.853 779.000,862.000 C806.679,866.823 848.990,872.438 862.999,851.000 C892.742,805.488 823.007,759.580 784.000,758.000 ZM2223.000,802.000 C2223.666,802.000 2224.333,802.000 2224.999,802.000 C2224.333,802.000 2223.666,802.000 2223.000,802.000 ZM552.999,808.000 C554.922,809.392 553.598,808.101 555.000,810.000 C554.333,809.333 553.666,808.667 552.999,808.000 ZM952.750,847.743 C957.348,848.390 959.498,848.771 960.750,850.743 C962.705,848.285 961.317,850.338 961.751,847.743 C972.998,852.776 990.043,877.608 998.751,897.743 C1000.417,906.742 1002.084,915.744 1003.750,924.743 C997.836,943.342 987.385,958.977 980.751,978.743 C978.375,992.845 976.084,1009.078 974.750,1024.743 C1022.602,1036.182 1047.482,993.616 1058.751,950.743 C1063.315,933.378 1058.559,918.997 1069.751,907.743 C1073.426,907.631 1075.411,904.331 1078.750,906.743 C1081.476,907.290 1080.824,907.375 1083.751,909.743 C1083.751,908.077 1083.751,906.409 1083.751,904.743 C1088.154,907.842 1083.984,907.391 1088.751,906.743 C1092.974,943.574 1078.153,1026.677 1103.751,1052.743 C1112.290,1049.919 1119.747,1053.877 1122.750,1059.743 C1126.231,1063.158 1129.565,1073.512 1126.751,1079.743 C1123.262,1086.339 1119.191,1084.090 1111.751,1086.743 C1073.835,1100.259 1057.392,1064.566 1049.750,1038.743 C1049.084,1039.076 1048.417,1039.410 1047.750,1039.743 C1032.827,1082.614 952.721,1069.491 950.751,1052.743 C947.450,1024.691 957.556,951.932 944.750,903.743 C941.405,891.155 945.543,850.909 950.751,850.743 C951.287,848.011 950.179,850.219 952.750,847.743 ZM1254.999,844.000 C1279.018,844.840 1292.393,863.759 1290.999,894.000 C1290.480,905.270 1290.926,911.401 1283.999,916.000 C1277.239,892.330 1236.356,884.807 1254.999,844.000 ZM1136.999,865.000 C1139.999,866.666 1143.000,868.333 1146.000,870.000 C1148.264,865.749 1146.557,869.971 1150.999,868.000 C1156.666,879.332 1162.333,890.668 1168.000,902.000 C1171.276,909.278 1168.610,919.315 1172.999,925.000 C1173.333,925.666 1173.666,926.333 1173.999,927.000 C1174.666,926.667 1175.333,926.333 1176.000,926.000 C1182.828,908.228 1199.843,903.843 1217.999,906.000 C1227.215,919.689 1244.994,945.031 1224.999,963.000 C1225.303,952.465 1223.586,946.570 1221.000,940.000 C1219.000,939.000 1216.999,938.000 1215.000,937.000 C1183.670,943.075 1165.382,996.565 1170.000,1035.000 C1171.612,1048.419 1179.798,1071.585 1172.999,1086.000 C1165.751,1086.834 1164.434,1094.708 1157.000,1097.000 C1148.521,1099.614 1142.550,1093.158 1135.999,1093.000 C1138.666,1084.334 1141.333,1075.666 1143.999,1067.000 C1143.999,1051.668 1143.999,1036.332 1143.999,1021.000 C1138.783,971.361 1145.829,906.660 1127.000,871.000 C1127.666,870.000 1128.333,869.000 1128.999,868.000 C1130.666,869.666 1132.333,871.333 1134.000,873.000 C1134.000,870.667 1134.000,868.333 1134.000,866.000 C1136.601,865.575 1134.546,866.976 1136.999,865.000 ZM781.999,885.000 C773.084,896.656 769.337,985.641 779.000,1000.000 C786.280,1003.689 793.693,1010.670 802.000,1014.000 C828.843,1024.759 881.709,1019.563 894.000,994.000 C901.102,979.227 889.477,959.287 884.999,949.000 C864.955,902.941 827.793,889.610 781.999,885.000 ZM2358.999,889.000 C2357.295,893.451 2353.222,898.601 2354.000,904.000 C2365.944,924.585 2375.146,940.753 2385.000,957.000 C2408.331,996.329 2466.662,1096.336 2478.000,1120.000 C2482.864,1121.855 2481.786,1120.389 2489.000,1119.000 C2481.735,1098.022 2479.307,1091.700 2469.999,1076.000 C2459.891,1058.946 2442.347,1028.167 2430.999,1008.000 C2419.001,991.668 2399.999,954.332 2387.999,938.000 C2378.712,924.255 2373.976,912.666 2358.999,889.000 ZM1254.999,916.000 C1276.159,925.156 1289.153,943.951 1298.999,963.000 C1297.000,977.332 1294.999,991.668 1292.999,1006.000 C1279.563,1034.717 1282.913,1080.841 1268.999,1128.000 C1265.480,1115.420 1262.647,1107.017 1261.000,1098.000 C1260.619,1074.000 1260.037,1071.449 1258.000,1056.000 C1258.000,1071.998 1257.252,1072.110 1255.999,1076.000 C1255.181,1060.859 1253.665,1048.912 1253.999,1039.000 C1251.333,999.671 1248.666,960.329 1246.000,921.000 C1250.633,920.066 1252.433,918.794 1254.999,916.000 ZM2345.000,925.000 C2344.000,925.666 2341.999,939.333 2341.000,940.000 C2349.378,954.359 2358.379,971.056 2398.000,1032.000 C2413.223,1055.417 2420.406,1067.704 2449.000,1120.000 C2453.999,1120.666 2459.000,1121.333 2464.000,1122.000 C2453.198,1103.488 2430.795,1063.270 2411.505,1029.414 C2381.711,977.124 2360.723,946.861 2345.000,925.000 ZM762.000,930.000 C761.720,944.363 759.289,966.009 764.000,977.000 C763.333,961.335 762.666,945.665 762.000,930.000 ZM2621.000,932.000 C2652.574,967.287 2683.058,1006.325 2711.999,1044.000 C2721.665,1056.665 2731.334,1069.335 2741.000,1082.000 C2743.967,1066.701 2747.036,1060.116 2748.999,1046.000 C2734.092,1031.476 2705.550,1003.741 2695.000,994.000 C2666.352,967.549 2647.567,942.821 2621.000,932.000 ZM2672.000,932.000 C2704.663,957.997 2737.336,984.003 2770.000,1010.000 C2771.822,1006.510 2772.528,1003.866 2771.000,998.000 C2759.334,990.001 2741.665,977.999 2730.000,970.000 C2710.136,956.712 2688.653,942.441 2672.000,932.000 ZM2407.000,2599.000 C2406.060,2663.944 2347.944,2683.415 2302.000,2705.000 C2293.000,2705.333 2280.999,2708.667 2272.000,2709.000 C2233.853,2707.259 2205.715,2697.119 2185.000,2672.000 C2185.333,2671.667 2185.666,2671.333 2186.000,2671.000 C2245.534,2693.935 2271.435,2703.178 2319.000,2664.000 C2323.538,2660.262 2334.241,2653.351 2334.999,2648.000 C2336.999,2645.667 2339.000,2643.333 2341.000,2641.000 C2346.491,2632.233 2364.554,2609.747 2347.000,2598.000 C2326.489,2625.032 2257.779,2662.698 2212.000,2643.000 C2212.000,2642.667 2212.000,2642.333 2212.000,2642.000 C2274.268,2643.144 2323.657,2571.999 2323.000,2522.000 C2329.183,2521.240 2332.145,2519.613 2335.999,2517.000 C2351.275,2525.003 2367.488,2530.312 2391.000,2528.000 C2381.771,2481.926 2389.013,2436.706 2438.000,2432.000 C2451.171,2430.735 2484.869,2450.402 2478.000,2460.000 C2478.333,2459.333 2478.666,2458.667 2479.000,2458.000 C2472.776,2456.154 2465.267,2445.624 2454.999,2443.000 C2454.999,2443.333 2454.999,2443.667 2454.999,2444.000 C2459.999,2449.333 2465.000,2454.667 2469.999,2460.000 C2439.726,2451.427 2429.028,2470.544 2420.000,2492.000 C2422.181,2512.637 2449.442,2534.059 2472.000,2526.000 C2497.226,2516.988 2545.491,2463.846 2518.000,2427.000 C2514.977,2422.949 2505.306,2407.265 2501.000,2405.000 C2495.298,2402.001 2492.919,2404.964 2489.000,2401.000 C2489.000,2400.667 2489.000,2400.333 2489.000,2400.000 C2495.554,2396.805 2503.711,2379.434 2509.000,2380.000 C2511.755,2377.280 2513.604,2378.293 2518.000,2379.000 C2528.103,2410.356 2573.526,2399.817 2582.000,2368.000 C2571.126,2354.975 2556.717,2355.160 2545.000,2336.000 C2517.022,2290.253 2556.346,2216.286 2595.999,2204.000 C2601.092,2202.422 2606.593,2205.335 2608.999,2206.000 C2617.999,2206.000 2627.000,2206.000 2636.000,2206.000 C2650.228,2211.025 2671.061,2230.385 2675.999,2245.000 C2689.939,2286.256 2660.811,2309.633 2630.000,2290.000 C2620.436,2256.855 2642.059,2261.569 2610.999,2236.000 C2579.336,2233.864 2572.433,2241.794 2564.999,2273.000 C2562.963,2281.552 2555.536,2300.833 2561.000,2313.000 C2576.768,2348.115 2657.930,2350.641 2690.999,2323.000 C2709.530,2307.511 2723.551,2253.608 2710.000,2221.000 C2705.287,2209.660 2691.573,2204.635 2688.000,2194.000 C2682.354,2177.199 2688.917,2160.834 2702.000,2154.000 C2715.411,2148.358 2726.205,2162.933 2745.000,2147.000 C2766.799,2128.520 2782.666,2067.507 2769.000,2039.000 C2762.547,2025.540 2750.060,2019.587 2739.000,2010.000 C2739.000,2009.667 2739.000,2009.333 2739.000,2009.000 C2782.623,2008.426 2773.280,1952.512 2752.000,1934.000 C2747.142,1929.774 2726.718,1919.849 2723.000,1928.000 C2718.667,1936.999 2714.332,1946.001 2710.000,1955.000 C2696.001,1975.998 2681.998,1997.002 2667.999,2018.000 C2668.999,2019.333 2670.000,2020.667 2671.000,2022.000 C2702.825,2029.027 2723.377,2068.417 2713.999,2111.000 C2707.730,2139.468 2675.756,2170.931 2645.000,2177.000 C2648.999,2171.667 2653.000,2166.333 2657.000,2161.000 C2655.077,2159.608 2656.401,2160.898 2654.999,2159.000 C2653.999,2159.667 2652.999,2160.333 2652.000,2161.000 C2642.380,2165.956 2639.890,2175.743 2626.000,2177.000 C2625.000,2176.667 2623.999,2176.333 2623.000,2176.000 C2623.333,2175.333 2623.666,2174.667 2623.999,2174.000 C2646.753,2166.506 2692.503,2103.550 2651.000,2087.000 C2634.465,2082.877 2580.082,2153.841 2570.000,2168.000 C2523.486,2233.321 2465.972,2302.381 2409.999,2359.000 C2386.253,2383.021 2356.240,2403.788 2334.999,2430.000 C2354.997,2415.668 2375.001,2401.332 2394.999,2387.000 C2394.999,2388.333 2394.999,2389.667 2394.999,2391.000 C2429.135,2373.275 2468.084,2333.121 2493.000,2302.000 C2503.332,2290.334 2513.667,2278.665 2524.000,2267.000 C2513.567,2289.979 2487.164,2309.367 2471.000,2328.000 C2426.960,2378.767 2384.254,2426.259 2331.000,2468.000 C2277.048,2510.287 2226.260,2560.508 2167.000,2597.000 C2135.243,2616.555 2101.514,2625.332 2064.000,2641.000 C2053.001,2646.999 2041.999,2653.000 2031.000,2659.000 C2020.993,2668.247 2017.551,2679.631 2002.999,2685.000 C1984.335,2689.999 1965.664,2695.000 1947.000,2700.000 C1896.573,2719.770 1844.915,2740.569 1787.999,2754.000 C1702.398,2774.199 1576.620,2784.153 1578.000,2784.000 C1470.331,2785.545 1392.603,2786.855 1312.000,2776.000 C1225.880,2764.402 1167.147,2747.442 1120.000,2730.000 C1072.852,2712.558 1055.993,2703.997 994.000,2680.000 C968.002,2667.335 941.997,2654.665 915.999,2642.000 C916.666,2641.000 917.333,2640.000 918.000,2639.000 C918.333,2639.000 918.667,2639.000 919.000,2639.000 C962.317,2644.572 995.572,2668.878 1038.000,2677.000 C1026.929,2665.718 1008.444,2665.241 994.000,2657.000 C976.001,2645.001 957.998,2632.999 940.000,2621.000 C881.059,2580.140 828.639,2534.584 773.999,2490.000 C748.002,2465.336 721.997,2440.664 696.000,2416.000 C691.333,2409.001 686.666,2401.999 682.000,2395.000 C665.933,2378.572 651.255,2361.334 636.000,2344.000 C630.667,2340.000 625.333,2335.999 619.999,2332.000 C593.891,2298.343 561.553,2249.065 539.000,2211.000 C512.559,2166.373 493.724,2130.246 474.000,2080.000 C468.667,2062.668 463.333,2045.332 458.000,2028.000 C456.612,2020.481 461.383,2015.135 459.000,2006.000 C455.329,1991.932 444.917,1975.202 439.999,1960.000 C428.461,1924.325 419.494,1885.572 408.000,1846.000 C401.000,1809.670 393.999,1773.330 387.000,1737.000 C386.333,1727.001 385.666,1716.999 385.000,1707.000 C377.858,1675.099 381.300,1641.186 378.000,1605.000 C377.333,1598.334 376.666,1591.666 376.000,1585.000 C377.666,1572.001 379.333,1558.999 380.999,1546.000 C380.904,1534.017 372.154,1478.116 378.000,1465.000 C383.501,1452.655 376.932,1432.797 381.999,1417.000 C391.824,1386.371 393.787,1348.960 403.999,1321.000 C411.355,1300.865 411.469,1281.974 419.999,1265.000 C421.999,1256.001 424.000,1246.999 425.999,1238.000 C438.834,1210.158 450.068,1156.081 470.999,1138.000 C471.333,1138.000 471.666,1138.000 471.999,1138.000 C471.999,1138.333 471.999,1138.667 471.999,1139.000 C396.054,1375.855 451.495,1784.264 527.000,1955.000 C547.421,2001.179 576.060,2044.313 601.000,2086.000 C611.998,2105.998 623.001,2126.002 633.999,2146.000 C654.014,2176.508 680.470,2207.296 706.999,2232.000 C732.331,2255.588 730.092,2253.070 756.000,2270.000 C740.950,2260.304 745.289,2262.560 714.999,2230.000 C688.244,2201.237 647.391,2141.028 615.000,2093.000 C557.150,2007.224 517.293,1923.939 510.000,1893.000 C510.333,1893.000 510.144,1885.491 513.874,1892.913 C517.346,1902.144 521.418,1911.334 522.000,1912.000 C525.912,1926.716 582.399,2023.605 590.000,2035.000 C594.666,2044.666 617.383,2081.680 643.000,2115.000 C667.522,2151.101 684.923,2170.308 706.000,2197.000 C743.677,2244.715 787.687,2291.878 835.000,2330.000 C867.362,2356.076 896.105,2389.122 928.999,2415.000 C974.766,2451.004 1036.160,2481.088 1091.999,2505.000 C1133.342,2522.704 1182.343,2543.264 1224.000,2554.000 C1232.499,2556.190 1238.672,2557.473 1239.000,2558.000 C1252.218,2562.307 1255.011,2563.831 1262.999,2565.000 C1263.983,2566.572 1266.759,2568.844 1267.000,2571.000 C1283.169,2575.409 1290.806,2580.713 1342.000,2588.000 C1384.995,2589.333 1428.004,2590.667 1470.999,2592.000 C1495.331,2592.333 1510.669,2592.667 1535.000,2593.000 C1529.621,2592.870 1547.333,2592.333 1544.999,2592.000 C1805.647,2571.786 2008.515,2505.747 2183.000,2400.000 C2227.794,2372.852 2269.524,2339.473 2311.000,2309.000 C2350.238,2280.171 2389.513,2246.406 2428.000,2214.000 C2441.998,2202.001 2452.331,2188.844 2467.999,2171.000 C2462.786,2183.737 2459.556,2186.067 2444.000,2209.000 C2423.534,2232.892 2415.628,2241.842 2388.999,2263.000 C2362.801,2285.306 2342.256,2300.935 2327.999,2318.000 C2310.323,2332.904 2290.015,2344.945 2271.000,2359.000 C2259.196,2367.724 2256.881,2369.841 2245.000,2378.000 C2238.870,2382.209 2225.096,2390.599 2219.000,2394.000 C2215.099,2396.176 2210.849,2402.169 2207.000,2405.000 C2189.335,2416.999 2171.665,2429.001 2154.000,2441.000 C2154.000,2441.667 2154.000,2442.333 2154.000,2443.000 C2154.333,2443.000 2154.667,2443.000 2155.000,2443.000 C2158.999,2441.667 2163.000,2440.333 2167.000,2439.000 C2147.480,2461.203 2117.954,2481.949 2094.000,2502.000 C2096.000,2502.000 2098.000,2502.000 2099.999,2502.000 C2191.258,2463.439 2258.285,2397.341 2327.999,2337.000 C2367.235,2303.040 2409.288,2270.410 2444.000,2232.000 C2558.102,2105.742 2652.179,1959.419 2732.000,1799.000 C2732.666,1799.000 2733.333,1799.000 2734.000,1799.000 C2732.971,1812.790 2721.197,1873.393 2725.000,1879.000 C2785.854,1849.773 2845.053,1931.550 2835.000,1993.000 C2832.393,2008.933 2824.615,2017.553 2821.000,2029.000 C2822.666,2041.665 2824.333,2054.334 2826.000,2067.000 C2825.294,2097.105 2816.792,2133.519 2800.000,2154.000 C2788.139,2168.466 2775.109,2168.074 2762.000,2179.000 C2767.882,2186.033 2800.085,2226.429 2785.000,2244.000 C2783.608,2245.923 2784.898,2244.599 2783.000,2246.000 C2781.880,2229.906 2773.263,2183.201 2750.999,2182.000 C2754.626,2193.674 2765.793,2201.298 2770.000,2215.000 C2785.615,2265.871 2759.066,2303.287 2740.000,2329.000 C2738.667,2338.332 2737.333,2347.667 2735.999,2357.000 C2730.073,2384.673 2726.973,2404.254 2711.000,2424.000 C2693.199,2446.004 2660.965,2454.988 2639.999,2474.000 C2645.124,2485.396 2640.827,2503.065 2635.000,2510.000 C2636.345,2502.807 2641.032,2489.632 2636.000,2483.000 C2635.667,2483.000 2635.333,2483.000 2635.000,2483.000 C2635.000,2483.667 2635.000,2484.333 2635.000,2485.000 C2632.055,2498.167 2624.850,2530.726 2606.000,2545.000 C2593.509,2554.459 2569.831,2560.690 2560.000,2560.000 C2551.000,2559.667 2541.998,2559.333 2533.000,2559.000 C2536.848,2558.140 2504.416,2582.126 2481.000,2590.000 C2457.583,2597.874 2443.656,2601.916 2423.000,2602.000 C2421.440,2605.046 2417.892,2614.911 2415.000,2622.000 C2410.234,2633.678 2402.001,2646.535 2391.000,2660.000 C2391.000,2659.667 2391.000,2659.333 2391.000,2659.000 C2394.999,2653.334 2403.640,2634.958 2407.000,2625.000 C2407.000,2625.000 2411.023,2611.057 2413.000,2601.000 C2410.000,2600.333 2409.999,2599.667 2407.000,2599.000 ZM2356.000,1142.000 C2354.354,1170.819 2387.302,1223.222 2393.999,1260.000 C2399.820,1291.963 2371.918,1307.575 2365.999,1322.000 C2374.162,1330.920 2436.996,1355.721 2452.999,1364.000 C2514.066,1394.033 2633.481,1461.465 2638.999,1465.000 C2649.903,1469.442 2679.885,1488.475 2686.000,1491.000 C2693.753,1494.202 2700.914,1490.939 2709.000,1494.000 C2709.000,1493.667 2709.000,1493.333 2709.000,1493.000 C2695.009,1462.469 2653.794,1394.434 2640.458,1377.115 C2598.266,1322.318 2589.741,1310.494 2546.000,1267.000 C2502.258,1223.506 2477.595,1209.760 2438.000,1187.000 C2409.889,1168.330 2387.272,1156.683 2356.000,1142.000 ZM730.999,1146.000 C742.728,1145.905 743.159,1151.903 750.999,1154.000 C757.332,1153.333 763.667,1152.666 770.000,1152.000 C776.432,1153.765 802.736,1168.651 803.999,1178.000 C805.333,1177.333 806.667,1176.666 808.000,1176.000 C802.000,1225.328 795.999,1274.672 789.999,1324.000 C791.401,1332.122 792.802,1335.576 801.000,1334.000 C801.666,1333.667 802.333,1333.333 802.999,1333.000 C818.323,1317.897 809.770,1326.750 839.999,1296.000 C870.229,1265.249 902.727,1224.431 885.999,1166.000 C897.665,1171.333 909.334,1176.667 920.999,1182.000 C928.665,1188.999 936.334,1196.001 943.999,1203.000 C975.558,1235.192 942.838,1253.432 928.999,1271.000 C915.604,1288.007 904.059,1303.836 888.000,1318.000 C881.937,1323.347 873.209,1332.211 865.000,1341.000 C870.040,1350.025 877.566,1361.359 883.000,1369.000 C906.543,1402.108 933.696,1426.302 961.000,1453.000 C962.159,1482.035 947.150,1500.502 920.000,1501.000 C914.067,1501.109 908.169,1501.409 905.000,1499.000 C890.598,1488.067 874.802,1434.967 863.999,1416.000 C855.001,1401.668 843.999,1383.332 835.000,1369.000 C820.194,1379.400 810.933,1385.697 795.000,1399.000 C800.445,1418.751 811.512,1435.221 816.000,1452.000 C822.889,1477.758 800.215,1495.377 795.999,1513.000 C796.999,1513.000 797.678,1513.429 799.000,1513.000 C810.189,1509.325 812.389,1508.517 821.000,1506.000 C810.001,1529.116 740.484,1579.420 721.000,1528.000 C715.979,1514.751 726.060,1496.548 729.999,1487.000 C742.295,1457.204 754.298,1433.189 759.999,1396.000 C766.360,1354.507 751.795,1261.803 739.000,1225.000 C732.161,1205.330 708.501,1174.864 721.000,1148.000 C724.332,1147.333 727.666,1146.667 730.999,1146.000 ZM1181.999,1156.000 C1188.888,1156.678 1189.928,1158.942 1194.000,1162.000 C1194.929,1180.240 1211.611,1216.097 1207.000,1229.000 C1205.667,1230.666 1204.333,1232.333 1202.999,1234.000 C1202.000,1233.333 1201.000,1232.667 1200.000,1232.000 C1193.220,1205.759 1123.245,1206.666 1163.000,1163.000 C1167.777,1157.752 1174.609,1158.951 1181.999,1156.000 ZM1346.000,1156.000 C1370.794,1155.808 1372.932,1174.680 1384.000,1185.000 C1383.971,1202.532 1377.049,1219.724 1370.000,1231.000 C1369.333,1230.667 1368.666,1230.333 1368.000,1230.000 C1366.234,1215.748 1340.153,1196.573 1334.000,1188.000 C1335.099,1174.924 1339.854,1163.949 1346.000,1156.000 ZM1929.999,1174.000 C1951.785,1186.192 2002.082,1270.853 2008.000,1302.000 C2007.666,1302.000 2007.333,1302.000 2007.000,1302.000 C1981.336,1259.338 1955.664,1216.662 1929.999,1174.000 ZM1113.999,1216.000 C1118.154,1234.765 1106.496,1278.115 1111.000,1306.000 C1115.333,1331.997 1119.666,1358.002 1124.000,1384.000 C1134.203,1411.062 1149.688,1434.785 1142.000,1465.000 C1094.533,1493.585 1104.886,1446.150 1089.000,1420.000 C1085.667,1420.000 1082.333,1420.000 1079.000,1420.000 C1069.334,1434.665 1059.665,1449.335 1050.000,1464.000 C1037.944,1473.236 997.780,1478.883 986.000,1463.000 C945.077,1407.827 1003.150,1268.073 1039.000,1249.000 C1056.282,1239.805 1069.105,1248.651 1083.999,1251.000 C1090.214,1244.008 1091.093,1230.018 1096.000,1225.000 C1101.246,1219.635 1108.159,1223.328 1113.999,1216.000 ZM1187.000,1493.000 C1189.666,1493.333 1192.333,1493.667 1194.999,1494.000 C1191.718,1489.461 1187.815,1483.391 1185.000,1482.000 C1189.133,1479.377 1206.821,1489.716 1217.999,1490.000 C1263.452,1491.154 1293.752,1471.914 1285.999,1416.000 C1285.333,1415.667 1284.666,1415.333 1283.999,1415.000 C1276.186,1421.740 1261.389,1433.168 1246.000,1426.000 C1208.386,1407.665 1209.899,1303.512 1237.000,1272.000 C1247.741,1259.509 1265.576,1252.987 1281.000,1245.000 C1279.727,1238.967 1277.886,1232.185 1280.000,1224.000 C1283.833,1225.535 1288.568,1220.162 1297.000,1225.000 C1301.044,1227.320 1302.513,1231.832 1305.999,1234.000 C1305.666,1233.000 1305.333,1232.000 1305.000,1231.000 C1309.988,1236.708 1318.065,1242.701 1320.000,1252.000 C1323.209,1264.722 1313.025,1268.516 1310.000,1277.000 C1310.000,1290.332 1310.000,1303.668 1310.000,1317.000 C1309.997,1390.026 1328.317,1461.381 1291.999,1509.000 C1267.161,1541.568 1191.716,1537.651 1187.000,1493.000 ZM1732.000,1223.000 C1723.576,1227.590 1714.759,1221.175 1709.000,1230.000 C1709.000,1230.667 1709.000,1231.333 1709.000,1232.000 C1728.012,1261.264 1767.632,1280.427 1794.000,1303.000 C1831.484,1335.091 1867.396,1368.926 1906.999,1399.000 C1929.725,1416.257 1947.996,1442.451 1976.000,1454.000 C1966.667,1444.334 1957.332,1434.666 1948.000,1425.000 C1959.872,1430.335 1969.364,1439.119 1980.999,1444.000 C1982.288,1439.941 1983.788,1439.558 1983.000,1436.000 C1985.867,1421.723 1967.908,1395.601 1963.000,1382.000 C1942.445,1325.036 1913.890,1272.916 1875.000,1234.000 C1825.290,1234.353 1783.767,1223.329 1732.000,1223.000 ZM1314.999,1243.000 C1315.333,1243.666 1315.666,1244.333 1316.000,1245.000 C1315.666,1244.333 1315.333,1243.666 1314.999,1243.000 ZM1357.999,1244.000 C1360.666,1244.667 1363.333,1245.333 1365.999,1246.000 C1370.454,1260.856 1377.987,1275.373 1380.999,1293.000 C1386.666,1326.161 1371.894,1355.914 1365.999,1382.000 C1362.342,1398.184 1365.039,1420.697 1357.000,1433.000 C1355.621,1435.660 1356.470,1434.841 1353.000,1437.000 C1353.000,1436.333 1353.000,1435.667 1353.000,1435.000 C1343.837,1425.554 1345.255,1407.690 1342.999,1393.000 C1337.915,1359.881 1331.335,1267.126 1357.999,1244.000 ZM1170.000,1249.000 C1176.666,1249.333 1183.333,1249.667 1189.999,1250.000 C1202.376,1255.584 1210.240,1271.364 1205.000,1290.000 C1194.716,1326.567 1190.749,1371.891 1180.999,1415.000 C1177.636,1429.873 1178.213,1449.982 1168.000,1458.000 C1163.666,1412.671 1159.333,1367.329 1155.000,1322.000 C1154.333,1305.335 1153.666,1288.665 1152.999,1272.000 C1156.333,1269.000 1159.667,1266.000 1163.000,1263.000 C1163.000,1259.000 1163.000,1255.000 1163.000,1251.000 C1165.333,1250.333 1167.667,1249.667 1170.000,1249.000 ZM1890.999,1249.000 C1891.666,1249.667 1892.333,1250.333 1892.999,1251.000 C1892.333,1250.333 1891.666,1249.667 1890.999,1249.000 ZM1052.000,1292.000 C1049.667,1292.666 1047.333,1293.333 1045.000,1294.000 C1033.821,1301.837 988.332,1376.697 1009.000,1400.000 C1010.315,1381.658 1015.487,1367.335 1020.000,1353.000 C1020.333,1353.000 1020.666,1353.000 1021.000,1353.000 C1018.377,1381.574 1014.141,1407.185 1028.000,1426.000 C1067.931,1429.821 1079.579,1377.653 1073.000,1341.000 C1069.362,1320.732 1074.548,1293.221 1052.000,1292.000 ZM1265.000,1284.000 C1246.907,1300.691 1223.620,1356.565 1250.000,1381.000 C1259.087,1375.113 1271.487,1369.157 1276.000,1359.000 C1280.095,1349.783 1278.841,1297.875 1276.000,1286.000 C1272.333,1285.333 1268.666,1284.667 1265.000,1284.000 ZM2156.999,1296.000 C2136.209,1345.806 2120.734,1397.771 2097.000,1444.000 C2082.334,1468.997 2067.665,1494.002 2053.000,1519.000 C2076.784,1521.749 2172.534,1541.947 2184.000,1536.000 C2202.521,1526.393 2202.756,1488.392 2198.000,1462.000 C2190.580,1420.829 2182.929,1382.686 2172.999,1347.000 C2168.106,1329.413 2166.501,1309.278 2156.999,1296.000 ZM656.999,1299.000 C655.666,1380.992 654.333,1463.008 653.000,1545.000 C652.666,1564.331 652.333,1583.668 652.000,1603.000 C651.813,1655.869 648.724,1694.096 654.000,1739.000 C655.999,1739.000 658.000,1739.000 660.000,1739.000 C660.666,1738.667 661.333,1738.333 661.999,1738.000 C663.081,1681.630 662.609,1648.241 661.586,1603.043 C662.333,1538.006 662.666,1473.993 662.999,1410.000 C663.000,1386.156 667.727,1309.319 656.999,1299.000 ZM354.000,1326.000 C354.333,1326.667 354.666,1327.333 355.000,1328.000 C354.666,1327.333 354.333,1326.667 354.000,1326.000 ZM351.999,1334.000 C352.333,1334.666 352.666,1335.333 352.999,1336.000 C352.666,1335.333 352.333,1334.666 351.999,1334.000 ZM1021.000,1350.000 C1021.333,1351.000 1021.666,1352.000 1022.000,1353.000 C1021.666,1353.000 1021.333,1353.000 1021.000,1353.000 C1021.000,1352.000 1021.000,1351.000 1021.000,1350.000 ZM2704.999,1363.000 C2704.999,1363.667 2704.999,1364.333 2704.999,1365.000 C2704.999,1364.333 2704.999,1363.667 2704.999,1363.000 ZM343.000,1374.000 C343.333,1374.666 343.666,1375.333 343.999,1376.000 C343.666,1375.333 343.333,1374.666 343.000,1374.000 ZM1946.000,1423.000 C1946.666,1423.666 1947.333,1424.333 1948.000,1425.000 C1946.077,1423.608 1947.401,1424.899 1946.000,1423.000 ZM1710.000,1444.000 C1720.397,1445.642 1747.114,1447.138 1748.000,1467.000 C1743.587,1479.246 1737.603,1484.015 1721.999,1485.000 C1712.119,1472.940 1702.307,1463.712 1701.000,1448.000 C1703.999,1446.667 1707.000,1445.333 1710.000,1444.000 ZM1630.000,1455.000 C1672.849,1450.597 1708.888,1463.504 1681.000,1508.000 C1645.326,1517.562 1629.679,1492.368 1630.000,1455.000 ZM1936.999,1519.000 C1937.666,1519.666 1938.333,1520.333 1939.000,1521.000 C1937.077,1519.608 1938.401,1520.899 1936.999,1519.000 ZM1838.000,1521.000 C1838.000,1521.667 1838.000,1522.333 1838.000,1523.000 C1838.000,1522.333 1838.000,1521.667 1838.000,1521.000 ZM1939.000,1521.000 C1939.666,1521.667 1940.333,1522.333 1941.000,1523.000 C1939.077,1521.608 1940.401,1522.898 1939.000,1521.000 ZM1839.999,1522.000 C1841.994,1525.492 1880.484,1564.480 1884.999,1568.000 C1886.666,1567.333 1888.333,1566.666 1890.000,1566.000 C1890.000,1564.667 1890.000,1563.333 1890.000,1562.000 C1880.001,1552.334 1869.999,1542.666 1860.000,1533.000 C1853.334,1529.334 1846.666,1525.666 1839.999,1522.000 ZM1979.000,1827.000 C1977.333,1827.000 1975.666,1827.000 1973.999,1827.000 C1963.102,1891.805 1888.526,1913.085 1891.999,1996.000 C1950.818,1950.894 2003.671,1889.932 2028.000,1811.000 C2030.333,1797.335 2032.666,1783.665 2035.000,1770.000 C2033.198,1760.309 2025.689,1728.907 2028.000,1723.000 C2025.876,1717.386 2013.000,1691.000 2013.000,1691.000 C2008.133,1687.312 1992.157,1678.514 1986.999,1672.000 C1984.666,1663.334 1982.332,1654.666 1979.999,1646.000 C1971.331,1628.003 1947.493,1613.040 1927.000,1607.000 C1893.152,1597.024 1872.778,1618.374 1850.000,1623.000 C1847.546,1581.045 1791.571,1542.346 1750.999,1566.000 C1749.999,1567.666 1749.000,1569.333 1748.000,1571.000 C1748.000,1572.333 1748.000,1573.667 1748.000,1575.000 C1763.061,1586.020 1774.005,1607.254 1779.999,1627.000 C1782.449,1635.069 1781.621,1648.661 1786.999,1654.000 C1799.998,1654.667 1813.001,1655.333 1825.999,1656.000 C1839.998,1662.333 1854.001,1668.667 1868.000,1675.000 C1887.494,1657.601 1920.232,1666.608 1935.999,1680.000 C1978.486,1716.087 1984.050,1760.463 1979.000,1827.000 ZM1387.000,1582.000 C1353.669,1592.999 1320.329,1604.001 1287.000,1615.000 C1287.333,1615.667 1287.666,1616.333 1288.000,1617.000 C1300.390,1613.223 1373.118,1599.103 1388.999,1582.000 C1388.333,1582.000 1387.666,1582.000 1387.000,1582.000 ZM1200.000,1621.000 C1158.337,1633.332 1119.662,1642.668 1077.999,1655.000 C1070.744,1656.411 1063.572,1658.227 1042.000,1665.000 C1023.685,1670.158 1012.945,1674.630 1005.000,1681.000 C1005.999,1681.667 1007.000,1682.333 1008.000,1683.000 C1028.670,1679.965 1041.245,1673.699 1063.000,1667.000 C1089.039,1658.674 1106.002,1654.000 1128.000,1649.000 C1153.847,1639.467 1182.641,1630.477 1210.999,1620.000 C1210.999,1619.333 1210.999,1618.666 1210.999,1618.000 C1208.333,1618.000 1202.666,1621.000 1200.000,1621.000 ZM2001.999,1622.000 C2005.999,1629.999 2010.000,1638.001 2014.000,1646.000 C2015.333,1646.000 2016.666,1646.000 2017.999,1646.000 C2012.667,1638.001 2007.332,1629.999 2001.999,1622.000 ZM2256.000,1628.000 C2256.666,1628.000 2257.333,1628.000 2258.000,1628.000 C2257.333,1628.000 2256.666,1628.000 2256.000,1628.000 ZM2014.000,1641.000 C2014.333,1641.667 2014.666,1642.333 2015.000,1643.000 C2014.666,1642.333 2014.333,1641.667 2014.000,1641.000 ZM1481.000,1651.000 C1505.363,1649.493 1526.610,1650.206 1531.000,1669.000 C1533.983,1681.773 1511.000,1696.518 1499.999,1688.000 C1491.289,1683.777 1477.150,1660.251 1481.000,1651.000 ZM1889.000,1690.000 C1888.000,1690.333 1886.999,1690.667 1886.000,1691.000 C1886.999,1692.333 1888.000,1693.667 1889.000,1695.000 C1914.630,1696.703 1924.330,1721.081 1936.999,1725.000 C1936.999,1724.667 1936.999,1724.333 1936.999,1724.000 C1923.737,1709.241 1911.571,1692.529 1889.000,1690.000 ZM1490.000,1763.000 C1470.846,1770.938 1422.290,1799.729 1433.999,1830.000 C1433.999,1829.333 1433.999,1828.666 1433.999,1828.000 C1440.067,1819.925 1443.735,1808.767 1452.000,1803.000 C1476.996,1785.557 1522.815,1779.508 1553.000,1795.000 C1565.509,1801.420 1571.542,1815.418 1580.999,1825.000 C1581.999,1824.333 1583.000,1823.666 1584.000,1823.000 C1585.333,1821.000 1586.666,1819.000 1587.999,1817.000 C1583.687,1788.941 1541.710,1769.698 1518.000,1764.000 C1508.667,1763.667 1499.332,1763.333 1490.000,1763.000 ZM1400.000,1783.000 C1400.333,1783.666 1400.666,1784.333 1401.000,1785.000 C1400.666,1784.333 1400.333,1783.666 1400.000,1783.000 ZM1653.000,1822.000 C1615.491,1854.920 1573.562,1940.562 1565.999,1954.000 C1557.751,1973.745 1542.039,1999.311 1528.999,2037.000 C1562.663,2044.666 1596.336,2052.334 1630.000,2060.000 C1640.703,2062.638 1663.162,2071.492 1669.999,2069.000 C1672.089,2030.384 1671.881,1987.672 1666.000,1943.000 C1665.666,1927.668 1665.333,1912.332 1665.000,1897.000 C1662.459,1880.749 1662.626,1832.211 1654.999,1824.000 C1654.333,1823.333 1653.666,1822.667 1653.000,1822.000 ZM247.000,1838.000 C247.000,1838.666 247.000,1839.333 247.000,1840.000 C247.000,1839.333 247.000,1838.666 247.000,1838.000 ZM1808.000,1846.000 C1808.666,1846.000 1809.333,1846.000 1809.999,1846.000 C1809.333,1846.000 1808.666,1846.000 1808.000,1846.000 ZM993.000,1863.000 C1102.358,1862.732 1217.482,1962.922 1269.999,2037.000 C1259.109,2033.000 1254.034,2022.684 1245.000,2017.000 C1224.729,2004.248 1202.617,1996.391 1179.000,1987.000 C1179.000,1988.000 1179.000,1989.000 1179.000,1990.000 C1186.455,1990.800 1200.354,2002.773 1207.000,2006.000 C1204.431,2008.027 1203.580,2007.162 1201.000,2008.000 C1193.867,2000.391 1179.090,1999.655 1168.000,1996.000 C1159.667,1992.334 1151.332,1988.666 1142.999,1985.000 C1112.003,1979.334 1080.996,1973.666 1050.000,1968.000 C1023.148,1962.075 992.985,1965.484 972.000,1953.000 C953.379,1941.923 926.804,1908.119 943.999,1880.000 C954.874,1862.217 986.135,1870.744 993.000,1863.000 ZM1705.999,1874.000 C1707.666,1917.662 1709.333,1961.338 1711.000,2005.000 C1712.999,2005.666 1715.000,2006.333 1717.000,2007.000 C1721.666,1998.667 1726.333,1990.332 1731.000,1982.000 C1742.623,1945.000 1739.059,1883.594 1705.999,1874.000 ZM251.000,1929.000 C251.333,1930.000 251.666,1931.000 252.000,1932.000 C251.666,1932.000 251.333,1932.000 251.000,1932.000 C251.000,1931.000 251.000,1930.000 251.000,1929.000 ZM252.000,1935.000 C252.333,1936.000 252.666,1937.000 253.000,1938.000 C252.666,1938.000 252.333,1938.000 252.000,1938.000 C252.000,1937.000 252.000,1936.000 252.000,1935.000 ZM253.000,1942.000 C253.333,1942.667 253.666,1943.333 254.000,1944.000 C253.666,1943.333 253.333,1942.667 253.000,1942.000 ZM438.000,1946.000 C438.000,1946.666 438.000,1947.333 438.000,1948.000 C438.000,1947.333 438.000,1946.666 438.000,1946.000 ZM254.999,1952.000 C254.999,1953.333 254.999,1954.667 254.999,1956.000 C254.999,1954.667 254.999,1953.333 254.999,1952.000 ZM830.000,1953.000 C915.133,1953.153 1002.601,1985.934 1070.999,2022.000 C1088.321,2031.134 1129.186,2050.827 1136.999,2067.000 C1119.795,2060.410 1047.993,2025.810 1022.000,2036.000 C1044.664,2043.666 1067.335,2051.334 1090.000,2059.000 C1090.000,2059.333 1090.000,2059.667 1090.000,2060.000 C1044.896,2053.966 1002.685,2055.227 961.000,2053.000 C920.782,2050.851 889.434,2073.394 857.000,2069.000 C819.236,2063.884 779.128,2063.121 758.000,2035.000 C761.046,2008.805 761.785,1970.435 779.000,1960.000 C794.973,1950.318 813.828,1959.894 830.000,1953.000 ZM2038.999,1954.000 C2039.333,1954.666 2039.666,1955.333 2039.999,1956.000 C2039.666,1955.333 2039.333,1954.666 2038.999,1954.000 ZM1563.000,1960.000 C1563.333,1960.667 1563.666,1961.333 1564.000,1962.000 C1563.666,1961.333 1563.333,1960.667 1563.000,1960.000 ZM256.999,1963.000 C257.333,1964.000 257.666,1965.000 258.000,1966.000 C257.666,1966.000 257.333,1966.000 256.999,1966.000 C256.999,1965.000 256.999,1964.000 256.999,1963.000 ZM913.000,1964.000 C913.666,1964.333 914.333,1964.667 914.999,1965.000 C914.333,1964.667 913.666,1964.333 913.000,1964.000 ZM493.999,1965.000 C512.036,2040.125 551.624,2107.683 589.999,2164.000 C600.131,2178.868 619.035,2210.357 632.000,2215.000 C632.000,2214.667 632.000,2214.333 632.000,2214.000 C621.667,2197.668 611.332,2181.332 601.000,2165.000 C576.294,2127.796 551.975,2085.276 533.000,2043.000 C524.755,2024.631 507.957,1975.293 493.999,1965.000 ZM917.000,1965.000 C917.666,1965.333 918.333,1965.667 919.000,1966.000 C918.333,1965.667 917.666,1965.333 917.000,1965.000 ZM926.000,1967.000 C926.666,1967.333 927.333,1967.667 928.000,1968.000 C927.333,1967.667 926.666,1967.333 926.000,1967.000 ZM928.999,1968.000 C929.999,1968.333 931.000,1968.667 932.000,1969.000 C931.000,1968.667 929.999,1968.333 928.999,1968.000 ZM933.000,1969.000 C934.000,1969.333 935.000,1969.667 935.999,1970.000 C935.000,1969.667 934.000,1969.333 933.000,1969.000 ZM936.999,1970.000 C937.666,1970.333 938.333,1970.667 939.000,1971.000 C938.333,1970.667 937.666,1970.333 936.999,1970.000 ZM940.000,1971.000 C940.666,1971.333 941.333,1971.667 942.000,1972.000 C941.333,1971.667 940.666,1971.333 940.000,1971.000 ZM944.999,1972.000 C945.666,1972.333 946.333,1972.667 947.000,1973.000 C946.333,1972.667 945.666,1972.333 944.999,1972.000 ZM954.000,1975.000 C954.666,1975.333 955.333,1975.667 956.000,1976.000 C955.333,1975.667 954.666,1975.333 954.000,1975.000 ZM957.999,1976.000 C958.666,1976.333 959.333,1976.667 959.999,1977.000 C959.333,1976.667 958.666,1976.333 957.999,1976.000 ZM1555.000,1976.000 C1554.666,1976.666 1554.333,1977.333 1554.000,1978.000 C1554.666,1977.333 1555.333,1976.666 1556.000,1976.000 C1555.666,1976.000 1555.333,1976.000 1555.000,1976.000 ZM964.000,1978.000 C964.666,1978.333 965.333,1978.667 965.999,1979.000 C965.333,1978.667 964.666,1978.333 964.000,1978.000 ZM2768.000,1980.000 C2768.333,1980.667 2768.667,1981.333 2769.000,1982.000 C2768.667,1981.333 2768.333,1980.667 2768.000,1980.000 ZM972.999,1981.000 C973.666,1981.333 974.333,1981.667 974.999,1982.000 C974.333,1981.667 973.666,1981.333 972.999,1981.000 ZM976.000,1982.000 C976.666,1982.333 977.333,1982.667 978.000,1983.000 C977.333,1982.667 976.666,1982.333 976.000,1982.000 ZM452.000,1988.000 C452.000,1988.666 452.000,1989.333 452.000,1990.000 C452.000,1989.333 452.000,1988.666 452.000,1988.000 ZM1206.000,2008.000 C1206.666,2008.000 1207.333,2008.000 1208.000,2008.000 C1207.333,2008.000 1206.666,2008.000 1206.000,2008.000 ZM1770.000,2008.000 C1770.000,2008.666 1770.000,2009.333 1770.000,2010.000 C1770.000,2009.333 1770.000,2008.666 1770.000,2008.000 ZM1031.000,2015.000 C1031.666,2015.666 1032.333,2016.333 1032.999,2017.000 C1032.333,2016.333 1031.666,2015.666 1031.000,2015.000 ZM1038.000,2018.000 C1039.000,2018.666 1039.999,2019.333 1040.999,2020.000 C1039.999,2019.333 1039.000,2018.666 1038.000,2018.000 ZM275.000,2054.000 C275.333,2055.000 275.666,2056.000 276.000,2057.000 C275.666,2057.000 275.333,2057.000 275.000,2057.000 C275.000,2056.000 275.000,2055.000 275.000,2054.000 ZM2875.999,2093.000 C2909.695,2094.509 2918.133,2122.479 2901.000,2146.000 C2893.558,2156.216 2828.946,2194.831 2814.000,2199.000 C2813.091,2170.950 2838.527,2115.443 2854.999,2101.000 C2861.999,2098.334 2869.000,2095.666 2875.999,2093.000 ZM1087.000,2107.000 C1089.861,2117.334 1075.721,2125.365 1072.000,2133.000 C1060.651,2156.286 1043.544,2192.271 1054.000,2223.000 C1054.333,2222.333 1054.666,2221.667 1054.999,2221.000 C1065.605,2212.020 1060.031,2179.968 1073.000,2168.000 C1067.854,2187.256 1065.345,2204.407 1072.000,2228.000 C1074.594,2237.199 1084.884,2246.726 1083.000,2258.000 C1078.925,2282.373 1055.161,2301.512 1029.000,2290.000 C999.892,2277.192 1000.160,2244.492 1009.000,2210.000 C1020.836,2163.814 1056.822,2135.368 1087.000,2107.000 ZM1400.000,2124.000 C1367.008,2150.822 1274.553,2192.733 1228.000,2204.000 C1228.000,2204.667 1228.000,2205.333 1228.000,2206.000 C1264.313,2209.833 1291.853,2213.616 1322.828,2217.902 C1359.164,2222.929 1387.017,2228.253 1431.000,2228.000 C1458.025,2227.844 1498.047,2231.532 1520.999,2223.000 C1520.999,2222.333 1520.999,2221.667 1520.999,2221.000 C1496.618,2192.218 1466.181,2170.086 1436.000,2147.000 C1425.360,2138.862 1417.490,2124.768 1400.000,2124.000 ZM1698.999,2128.000 C1699.666,2128.000 1700.333,2128.000 1701.000,2128.000 C1700.333,2128.000 1699.666,2128.000 1698.999,2128.000 ZM1712.000,2128.000 C1712.666,2128.000 1713.333,2128.000 1713.999,2128.000 C1713.333,2128.000 1712.666,2128.000 1712.000,2128.000 ZM2890.999,2189.000 C2893.666,2190.000 2896.333,2191.000 2898.999,2192.000 C2902.886,2199.326 2907.982,2203.340 2909.000,2214.000 C2895.735,2241.286 2870.531,2261.543 2832.999,2263.000 C2832.999,2262.333 2832.999,2261.667 2832.999,2261.000 C2830.310,2257.203 2826.462,2249.577 2828.000,2245.000 C2831.231,2229.206 2852.408,2199.456 2865.000,2192.000 C2873.665,2191.000 2882.334,2190.000 2890.999,2189.000 ZM2222.000,2241.000 C2179.725,2259.300 2161.248,2267.385 2123.000,2283.000 C2106.668,2288.333 2038.331,2310.667 2022.000,2316.000 C2046.481,2309.421 2110.372,2290.271 2127.000,2285.000 C2166.579,2272.418 2190.958,2266.855 2225.999,2249.000 C2232.999,2244.334 2253.000,2237.666 2260.000,2233.000 C2259.867,2232.920 2266.401,2229.259 2266.000,2227.000 C2266.897,2224.715 2268.666,2223.666 2269.999,2222.000 C2246.822,2231.371 2241.218,2232.797 2222.000,2241.000 ZM2779.999,2224.000 C2779.999,2224.667 2779.999,2225.333 2779.999,2226.000 C2779.999,2225.333 2779.999,2224.667 2779.999,2224.000 ZM2177.000,2225.000 C2177.666,2225.000 2178.333,2225.000 2179.000,2225.000 C2178.333,2225.000 2177.666,2225.000 2177.000,2225.000 ZM2175.000,2226.000 C2175.666,2226.000 2176.333,2226.000 2177.000,2226.000 C2176.333,2226.000 2175.666,2226.000 2175.000,2226.000 ZM2171.999,2228.000 C2172.666,2228.000 2173.333,2228.000 2173.999,2228.000 C2173.333,2228.000 2172.666,2228.000 2171.999,2228.000 ZM2170.000,2229.000 C2170.666,2229.000 2171.333,2229.000 2171.999,2229.000 C2171.333,2229.000 2170.666,2229.000 2170.000,2229.000 ZM2780.999,2230.000 C2780.999,2231.000 2780.999,2232.000 2780.999,2233.000 C2781.333,2232.000 2781.666,2231.000 2782.000,2230.000 C2781.666,2230.000 2781.333,2230.000 2780.999,2230.000 ZM2161.000,2234.000 C2161.666,2234.000 2162.333,2234.000 2163.000,2234.000 C2162.333,2234.000 2161.666,2234.000 2161.000,2234.000 ZM2158.999,2235.000 C2159.666,2235.000 2160.333,2235.000 2161.000,2235.000 C2160.333,2235.000 2159.666,2235.000 2158.999,2235.000 ZM2782.000,2236.000 C2782.000,2237.333 2782.000,2238.667 2782.000,2240.000 C2782.333,2240.000 2782.666,2240.000 2783.000,2240.000 C2782.666,2238.667 2782.333,2237.333 2782.000,2236.000 ZM2609.999,2238.000 C2610.666,2238.000 2611.333,2238.000 2612.000,2238.000 C2611.333,2238.000 2610.666,2238.000 2609.999,2238.000 ZM2615.999,2238.000 C2616.666,2238.667 2617.333,2239.333 2617.999,2240.000 C2617.333,2239.333 2616.666,2238.667 2615.999,2238.000 ZM2149.999,2240.000 C2150.666,2240.000 2151.333,2240.000 2151.999,2240.000 C2151.333,2240.000 2150.666,2240.000 2149.999,2240.000 ZM1461.999,2243.000 C1491.663,2245.666 1521.336,2248.333 1550.999,2251.000 C1549.000,2248.667 1546.999,2246.333 1544.999,2244.000 C1517.336,2243.667 1489.663,2243.333 1461.999,2243.000 ZM2809.999,2310.000 C2885.535,2307.091 2831.435,2416.528 2778.000,2396.000 C2777.053,2352.926 2786.661,2328.516 2809.999,2310.000 ZM2726.999,2343.000 C2723.000,2361.665 2718.999,2380.335 2715.000,2399.000 C2715.333,2399.000 2715.666,2399.000 2716.000,2399.000 C2719.039,2384.025 2736.216,2358.646 2726.999,2343.000 ZM2235.000,2344.000 C2235.000,2344.333 2235.000,2344.000 2235.000,2344.000 ZM2629.000,2366.000 C2628.000,2367.666 2626.999,2369.333 2626.000,2371.000 C2630.008,2368.952 2626.596,2389.342 2623.000,2396.000 C2616.407,2408.202 2603.981,2415.050 2592.000,2422.000 C2592.333,2423.666 2592.666,2425.333 2593.000,2427.000 C2632.617,2441.993 2679.920,2413.065 2674.000,2367.000 C2659.001,2366.667 2643.998,2366.333 2629.000,2366.000 ZM532.000,2392.000 C551.183,2395.430 553.656,2409.675 565.999,2419.000 C581.665,2430.332 597.335,2441.668 613.000,2453.000 C671.792,2496.547 753.475,2550.449 795.736,2575.593 C818.503,2589.138 849.819,2597.953 862.999,2620.000 C842.932,2619.972 821.778,2606.879 802.999,2599.000 C760.932,2581.349 720.500,2566.489 685.999,2541.000 C681.000,2534.334 676.920,2527.447 668.000,2518.000 C634.386,2491.569 623.284,2480.022 602.000,2463.000 C591.540,2454.635 534.713,2400.987 532.000,2392.000 ZM2569.000,2447.000 C2568.000,2448.333 2566.999,2449.667 2565.999,2451.000 C2566.333,2464.332 2566.666,2477.668 2567.000,2491.000 C2563.883,2506.707 2545.738,2522.372 2547.000,2530.000 C2547.666,2530.000 2548.333,2530.000 2549.000,2530.000 C2582.799,2549.981 2608.077,2496.111 2593.999,2465.000 C2590.487,2457.238 2582.259,2452.196 2576.000,2447.000 C2573.667,2447.000 2571.333,2447.000 2569.000,2447.000 ZM2634.000,2510.000 C2634.333,2510.667 2634.666,2511.333 2635.000,2512.000 C2634.666,2511.333 2634.333,2510.667 2634.000,2510.000 ZM1564.000,2547.000 C1564.666,2547.333 1565.333,2547.667 1565.999,2548.000 C1565.333,2547.667 1564.666,2547.333 1564.000,2547.000 ZM1566.999,2547.000 C1567.666,2547.333 1568.333,2547.667 1569.000,2548.000 C1568.333,2547.667 1567.666,2547.333 1566.999,2547.000 ZM2116.000,2557.000 C2107.659,2564.838 2093.838,2567.763 2082.999,2573.000 C2036.179,2595.622 1984.024,2610.772 1933.000,2631.000 C1906.897,2641.348 1886.882,2638.956 1866.000,2654.000 C1867.000,2654.666 1868.000,2655.333 1868.999,2656.000 C1886.144,2664.556 1922.158,2649.230 1936.999,2644.000 C1983.257,2627.700 2024.158,2607.600 2065.000,2586.000 C2081.232,2577.415 2106.300,2570.410 2118.000,2557.000 C2117.333,2557.000 2116.666,2557.000 2116.000,2557.000 ZM2478.000,2587.000 C2478.666,2587.000 2479.333,2587.000 2480.000,2587.000 C2479.333,2587.000 2478.666,2587.000 2478.000,2587.000 ZM910.000,2637.000 C912.000,2637.666 914.000,2638.333 915.999,2639.000 C915.999,2639.333 915.999,2639.667 915.999,2640.000 C911.872,2639.164 912.320,2639.108 910.000,2637.000 ZM1199.000,2723.000 C1261.760,2749.142 1288.479,2764.830 1394.999,2772.000 C1489.156,2778.337 1579.572,2750.860 1610.999,2738.000 C1606.333,2738.333 1601.666,2738.667 1596.999,2739.000 C1548.405,2743.508 1516.615,2745.450 1462.999,2751.000 C1406.815,2749.839 1347.858,2747.063 1294.000,2738.000 C1250.736,2730.686 1232.996,2727.666 1199.000,2723.000 ZM963.000,1684.000 C953.692,1686.275 939.500,1689.000 937.000,1696.000 C935.023,1701.534 934.224,1704.390 937.762,1705.512 C948.177,1702.653 958.400,1696.991 964.000,1693.000 C978.172,1682.899 981.778,1679.411 963.000,1684.000 Z" class="cls-1"/>
  </g>
</svg>
